<?xml version="1.0" encoding="UTF-8"?>
<svg version="1.1" xmlns="http://www.w3.org/2000/svg" width="557" height="448">
<path d="M0 0 C3.79736722 1.41838762 7.21154483 3.16673673 10.71875 5.1953125 C11.81703125 5.82953125 12.9153125 6.46375 14.046875 7.1171875 C15.18640625 7.77976562 16.3259375 8.44234375 17.5 9.125 C18.60859375 9.764375 19.7171875 10.40375 20.859375 11.0625 C27.54256509 14.93253333 34.14234539 18.91786091 40.70898438 22.98193359 C46.42437132 26.486636 52.21194683 29.86731745 58 33.25 C58.62429901 33.61550964 59.24859802 33.98101929 59.89181519 34.35760498 C68.94047728 39.6551754 77.99932094 44.93624223 87.14013672 50.07373047 C90.69013164 52.07268116 94.1883667 54.07951387 97.56640625 56.359375 C98.57574219 57.02453125 99.58507812 57.6896875 100.625 58.375 C101.42164063 58.93960938 102.21828125 59.50421875 103.0390625 60.0859375 C107.91411615 61.59090129 112.11053351 60.12987671 117 59 C118.55928293 58.65825861 120.11905693 58.31875352 121.67919922 57.98095703 C125.27289769 57.20052003 128.86551305 56.41541225 132.45703125 55.625 C133.38854004 55.42003906 134.32004883 55.21507812 135.27978516 55.00390625 C137.18076546 54.58371359 139.08115719 54.16084956 140.98095703 53.73535156 C143.75891478 53.11441318 146.53929428 52.50550093 149.3203125 51.8984375 C150.15805206 51.7078476 150.99579163 51.51725769 151.85891724 51.32089233 C159.5728616 49.65545732 166.59927365 49.43276922 174.3359375 51.171875 C175.47401855 51.42243652 176.61209961 51.67299805 177.78466797 51.93115234 C179.56188232 52.33648193 179.56188232 52.33648193 181.375 52.75 C183.86456201 53.29957579 186.35414543 53.84905458 188.84375 54.3984375 C191.22920378 54.93212581 193.61462263 55.46597029 196 56 C199.62271189 56.80260209 203.24779525 57.59299132 206.875 58.375 C207.62185059 58.54225586 208.36870117 58.70951172 209.13818359 58.88183594 C217.06263807 60.59214985 221.17718228 60.29985458 228 56 C229.86213675 54.92188454 231.72843799 53.85094671 233.59765625 52.78515625 C245.03068194 46.20543842 256.44046361 39.59130281 267.78466797 32.85913086 C272.61667214 29.99329198 277.45845383 27.14589484 282.31640625 24.32421875 C283.9104126 23.39814819 283.9104126 23.39814819 285.53662109 22.45336914 C287.56315816 21.27742492 289.59074365 20.10328466 291.61962891 18.93139648 C299.34357133 14.44831101 306.90981227 9.74091394 314.33984375 4.78515625 C315.19707031 4.21667969 316.05429687 3.64820313 316.9375 3.0625 C317.81277344 2.47597656 318.68804687 1.88945312 319.58984375 1.28515625 C322 0 322 0 326 0 C327.47945401 2.95890803 327.44920427 6.06892178 327.70849609 9.32250977 C327.77209824 10.07934052 327.83570038 10.83617126 327.90122986 11.61593628 C328.11247444 14.14078929 328.31789507 16.66608317 328.5234375 19.19140625 C328.67136762 20.97040545 328.81970028 22.74937121 328.96841431 24.52830505 C329.36207474 29.24839838 329.7510006 33.96886958 330.13873291 38.68945312 C330.74896937 46.11002935 331.36620641 53.53002647 331.98343658 60.95002365 C332.21120802 63.69466602 332.43730941 66.43944256 332.66326904 69.18423462 C333.42028286 78.33941262 334.22072065 87.48768445 335.11203384 96.63079739 C335.69732564 102.65192802 336.22951891 108.67578147 336.72387695 114.70516968 C336.89170983 116.70783071 337.07155676 118.70959658 337.27319336 120.70913696 C338.85152905 136.93365779 333.2518907 152.16863223 328.56420898 167.48614502 C327.40026515 171.30936861 326.26608807 175.14140542 325.12890625 178.97265625 C323.30405877 185.10819829 321.46325568 191.23870014 319.60839844 197.36523438 C317.27495249 205.07355169 314.97670395 212.79171655 312.6953125 220.515625 C310.90764324 226.56120554 309.11985125 232.60670961 307.31591797 238.64746094 C307.05374481 239.52766907 306.79157166 240.4078772 306.52145386 241.3147583 C306.01721685 242.98818128 305.50385284 244.65888838 304.98025513 246.32635498 C303.88100627 249.84823273 302.972912 253.16549077 302.375 256.81835938 C301.59620933 261.05546738 300.94955599 264.50954246 297.37646484 267.24121094 C292.21158847 270.33421345 286.61699401 272.38918938 281 274.5 C279.33544133 275.16478575 277.67265496 275.83402724 276.01171875 276.5078125 C263.4341057 281.56557657 263.4341057 281.56557657 258.34985352 283.10571289 C253.83970172 284.56679708 250.91985903 285.67093265 248.17138672 289.64208984 C246.51128578 293.17093829 245.19497524 296.75340932 243.9375 300.4375 C243.42491955 301.82751607 242.90700401 303.21557426 242.38427734 304.60180664 C241.53081374 306.86700423 240.68112045 309.13304071 239.84649658 311.40525818 C236.30580514 321.02297738 232.3290014 330.45990227 228.38381958 339.91702271 C226.76044239 343.81223852 225.14761567 347.7117671 223.53622437 351.61195374 C222.77472153 353.45421839 222.01198955 355.29597551 221.24795532 357.13719177 C219.47113026 361.42131443 217.70939199 365.71015532 215.98608398 370.01611328 C215.67126068 370.79741104 215.35643738 371.5787088 215.03207397 372.38368225 C214.45052756 373.82937383 213.87419709 375.27718015 213.30435181 376.7275238 C211.11885006 382.14150889 208.66028441 385.56047843 204 389 C203.17113281 389.64195312 202.34226562 390.28390625 201.48828125 390.9453125 C198.95549629 392.87340801 196.39760372 394.7624825 193.83056641 396.64453125 C190.29344931 399.26363956 186.80603772 401.94821281 183.3125 404.625 C182.581521 405.18372803 181.85054199 405.74245605 181.09741211 406.31811523 C176.61764755 409.74591013 172.16396893 413.2033109 167.76171875 416.73046875 C165.91855074 418.05869404 164.03892823 419.00674353 162 420 C161.00742187 419.18917969 160.01484375 418.37835938 158.9921875 417.54296875 C149.43969634 409.75270259 139.80379662 402.08175751 130.08154297 394.50488281 C128.78372863 393.49313714 127.48651891 392.48061538 126.18994141 391.46728516 C124.97097958 390.51462448 123.75067702 389.56367594 122.52880859 388.61474609 C117.20572798 384.4527244 114.49810275 381.4184133 111.953125 375.1328125 C111.66517059 374.43853149 111.37721619 373.74425049 111.08053589 373.02893066 C110.12965045 370.73058528 109.18974237 368.42792154 108.25 366.125 C107.58501511 364.51068139 106.91947889 362.89658979 106.25341797 361.28271484 C104.15676838 356.19342602 102.07641904 351.09757107 100 346 C99.66367554 345.17467773 99.32735107 344.34935547 98.98083496 343.49902344 C97.33217294 339.45174337 95.68688749 335.40313402 94.04638672 331.35253906 C92.77198454 328.20833918 91.48357722 325.07043127 90.18408203 321.93652344 C87.48914197 315.40553082 84.89745444 308.97046696 82.9375 302.171875 C80.47966104 294.00471548 78.43635409 287.97536405 70.73828125 283.5859375 C61.34294183 279.06674556 51.42185545 275.99911075 41.390625 273.23901367 C28.47046627 268.36929038 28.47046627 268.36929038 25.53448486 263.63868713 C24.44839501 260.71508788 23.66627576 257.82740609 22.9453125 254.79296875 C22.30571229 252.44373099 21.66597536 250.09453044 21.02612305 247.74536133 C20.70130951 246.49123444 20.37649597 245.23710754 20.0418396 243.94497681 C18.98012443 239.87145431 17.81158276 235.83294444 16.62036133 231.7956543 C16.41459819 231.09776448 16.20883505 230.39987467 15.99683666 229.68083668 C15.57456964 228.24939101 15.15213326 226.81799528 14.72953224 225.38664818 C13.64990406 221.71461312 12.5896463 218.03701485 11.52929688 214.359375 C11.20967468 213.25155938 11.20967468 213.25155938 10.88359547 212.12136364 C10.4514778 210.62355322 10.01943392 209.12572151 9.58746338 207.62786865 C8.28978232 203.12991527 6.98905398 198.63284238 5.68877602 194.13563919 C4.63426324 190.48829849 3.58015724 186.84084176 2.52719116 183.1930542 C0.68249657 176.8042825 -1.16716304 170.41714512 -3.03857422 164.03613281 C-3.35088486 162.97069244 -3.6631955 161.90525208 -3.98497009 160.80752563 C-4.54349153 158.90499618 -5.10347843 157.00289575 -5.6655426 155.10140991 C-6.17752437 153.35768828 -6.67873478 151.61077111 -7.1696167 149.86099243 C-7.7743804 147.777347 -8.43219654 145.70888196 -9.12091064 143.65145874 C-12.38834626 133.17751331 -12.03218774 124.16435767 -10.9296875 113.3359375 C-10.76952381 111.56943073 -10.61170661 109.80270984 -10.45608521 108.03579712 C-10.04285256 103.41546157 -9.5981292 98.79870611 -9.14630127 94.18200684 C-8.69799974 89.54367447 -8.28002312 84.90262581 -7.859375 80.26171875 C-7.00306818 70.87096071 -6.11114068 61.48388939 -5.2029686 52.09801865 C-4.7406816 47.3195123 -4.28216442 42.54064283 -3.82421875 37.76171875 C-3.74723251 36.96044052 -3.67024628 36.15916229 -3.59092712 35.33360291 C-2.85751066 27.63452617 -2.26645363 19.92594989 -1.70117188 12.21289062 C-1.58418945 10.68245117 -1.58418945 10.68245117 -1.46484375 9.12109375 C-1.399021 8.2283374 -1.33319824 7.33558105 -1.26538086 6.41577148 C-1.02117821 4.19278603 -0.60278066 2.15019891 0 0 Z M91 200 C88.66015558 202.87648225 88.66015558 202.87648225 89.125 206.4375 C90.25585163 211.04168162 92.00983664 212.57845475 95.75 215.25 C99.90988793 216.63662931 103.89755184 216.75819281 108.00390625 215.27734375 C110.8742556 213.79722623 112.77197824 212.36103446 114.5 209.625 C115.10242738 206.46225628 114.77757815 204.11031261 114 201 C111.57158891 198.57158891 105.32445062 199.76629957 102.0625 199.75 C101.03447266 199.729375 100.00644531 199.70875 98.94726562 199.6875 C97.47483398 199.67976562 97.47483398 199.67976562 95.97265625 199.671875 C95.06781494 199.6625293 94.16297363 199.65318359 93.23071289 199.64355469 C92.49457764 199.76118164 91.75844238 199.87880859 91 200 Z M213 200 C211.55885553 202.61770383 211 203.87311274 211 206.9375 C212.40171206 211.23024319 214.31820881 212.42274617 218 215 C221.61930698 216.20643566 224.19231005 216.32268559 228 216 C231.75591192 213.97758589 235.10433378 211.90284221 237 208 C236.95350297 203.6542316 236.95350297 203.6542316 235 200 C233.36527118 199.91299658 231.72685945 199.89298937 230.08984375 199.90234375 C228.60581055 199.90717773 228.60581055 199.90717773 227.09179688 199.91210938 C225.53041992 199.92467773 225.53041992 199.92467773 223.9375 199.9375 C222.37032227 199.94426758 222.37032227 199.94426758 220.77148438 199.95117188 C218.1809334 199.96300087 215.59049441 199.97948311 213 200 Z " fill="#D6A553" transform="translate(104,14)"/>
<path d="M0 0 C12.81984358 4.76907625 24.70482815 13.38239779 36.38134766 20.42236328 C40.68800332 23.01695669 45.00049807 25.60180507 49.3125 28.1875 C50.82945582 29.09760835 52.34638287 30.00776466 53.86328125 30.91796875 C54.65871338 31.39508301 55.45414551 31.87219727 56.27368164 32.36376953 C58.30461994 33.58265988 60.33496091 34.80254561 62.36499023 36.02294922 C68.96044331 39.98665571 75.5642407 43.93569275 82.18359375 47.859375 C82.86279373 48.26199051 83.54199371 48.66460602 84.24177551 49.079422 C87.01032241 50.72010995 89.7791442 52.36033133 92.54858398 53.99951172 C94.61492409 55.22278506 96.68051531 56.44731612 98.74609375 57.671875 C99.3957309 58.05573364 100.04536804 58.43959229 100.71469116 58.83508301 C104.10256516 60.84369657 107.43171397 62.91509291 110.72265625 65.078125 C113.94186583 67.33723428 113.94186583 67.33723428 118 67 C118.15644248 71.81000279 117.7377807 75.77014247 116.38623047 80.3828125 C116.03051971 81.61362549 115.67480896 82.84443848 115.30831909 84.11254883 C114.91147825 85.4500928 114.51442813 86.7875747 114.1171875 88.125 C113.70592673 89.53451933 113.29547333 90.94427444 112.88577271 92.35424805 C111.78716665 96.12610943 110.67692015 99.89444966 109.56420898 103.66217041 C108.41260922 107.56845148 107.27149453 111.47779446 106.12890625 115.38671875 C103.6410061 123.88939863 101.13663926 132.38716802 98.62565613 140.88305664 C98.0290288 142.90177939 97.43274099 144.92060211 96.83654785 146.93945312 C85.77104017 184.39688227 85.77104017 184.39688227 80 203 C78.16016175 200.58211562 76.40017328 198.14966939 74.7578125 195.59375 C74.33806152 194.94253174 73.91831055 194.29131348 73.48583984 193.62036133 C73.0367627 192.92064209 72.58768555 192.22092285 72.125 191.5 C71.14086152 189.97250384 70.15647605 188.44516679 69.171875 186.91796875 C68.65560547 186.11665527 68.13933594 185.3153418 67.60742188 184.48974609 C64.87449918 180.25670454 62.12385323 176.03520645 59.375 171.8125 C54.87233559 164.89280375 50.39509151 157.95771219 45.9453125 151.00390625 C43.68813104 147.51841922 41.36269097 144.08387967 38.99609375 140.671875 C38 139 38 139 38 137 C35.53940467 138.51726536 33.08156132 140.03872632 30.625 141.5625 C29.60599609 142.18995117 29.60599609 142.18995117 28.56640625 142.83007812 C27.53193359 143.47299805 27.53193359 143.47299805 26.4765625 144.12890625 C25.74759766 144.57685547 25.01863281 145.02480469 24.26757812 145.48632812 C21.94073952 146.97996935 21.94073952 146.97996935 19.74804688 148.88867188 C11.45309727 155.64929554 3.61917056 154.66827512 -6.65234375 154.1953125 C-10.28589461 154.15012845 -13.46408338 154.1459348 -17 155 C-18.73034676 156.99218323 -18.73034676 156.99218323 -19.8359375 159.50390625 C-21.10742188 161.97851562 -21.10742188 161.97851562 -23 164 C-28.67242093 165.18841765 -34.10526002 164.84588769 -39.875 164.5625 C-45.19625 164.376875 -50.5175 164.19125 -56 164 C-56 149.81 -56 135.62 -56 121 C-43.63697161 124.37173502 -43.63697161 124.37173502 -39.1328125 125.90234375 C-37.65965576 126.39915649 -37.65965576 126.39915649 -36.15673828 126.90600586 C-35.15626465 127.24639893 -34.15579102 127.58679199 -33.125 127.9375 C-25.51118262 130.50535935 -17.89778439 133.01839211 -10.1953125 135.30859375 C-8 136 -8 136 -6 137 C-6.00523682 136.36425049 -6.01047363 135.72850098 -6.01586914 135.07348633 C-6.03758717 131.98650247 -6.04994379 128.8995343 -6.0625 125.8125 C-6.07087891 124.81541016 -6.07925781 123.81832031 -6.08789062 122.79101562 C-6.16171575 98.05959882 -4.62447162 73.32144923 -3.27050781 48.63549805 C-3.04135921 44.45710675 -2.81745029 40.27845242 -2.59492493 36.09970379 C-2.42024373 32.8301121 -2.24286161 29.56067121 -2.06466675 26.2912693 C-1.98091901 24.74887372 -1.89799194 23.20643333 -1.81594849 21.66394615 C-1.03574867 7.04687187 -1.03574867 7.04687187 0 0 Z M-6 137 C-7.44114447 139.61770383 -8 140.87311274 -8 143.9375 C-6.59828794 148.23024319 -4.68179119 149.42274617 -1 152 C2.61930698 153.20643566 5.19231005 153.32268559 9 153 C12.75591192 150.97758589 16.10433378 148.90284221 18 145 C17.95350297 140.6542316 17.95350297 140.6542316 16 137 C14.36527118 136.91299658 12.72685945 136.89298937 11.08984375 136.90234375 C9.60581055 136.90717773 9.60581055 136.90717773 8.09179688 136.91210938 C6.53041992 136.92467773 6.53041992 136.92467773 4.9375 136.9375 C3.37032227 136.94426758 3.37032227 136.94426758 1.77148438 136.95117188 C-0.8190666 136.96300087 -3.40950559 136.97948311 -6 137 Z " fill="#9C7C44" transform="translate(323,77)"/>
<path d="M0 0 C1.47945401 2.95890803 1.44920427 6.06892178 1.70849609 9.32250977 C1.77209824 10.07934052 1.83570038 10.83617126 1.90122986 11.61593628 C2.11247444 14.14078929 2.31789507 16.66608317 2.5234375 19.19140625 C2.67136762 20.97040545 2.81970028 22.74937121 2.96841431 24.52830505 C3.36207474 29.24839838 3.7510006 33.96886958 4.13873291 38.68945312 C4.74902169 46.11066562 5.3662012 53.53130884 5.98343658 60.95194626 C6.21089099 63.69084625 6.43709857 66.42984748 6.66326904 69.16885376 C7.36781414 77.66841655 8.09498296 86.1646541 8.89550781 94.65576172 C8.96641191 95.41217799 9.03731602 96.16859426 9.11036873 96.94793224 C9.43845115 100.44021798 9.77270199 103.93158902 10.11776733 107.42225647 C10.83656824 114.97630718 11.1606903 122.41223028 11 130 C7.29998779 131.13214111 7.29998779 131.13214111 4.60009766 129.94287109 C3.71370605 129.39195801 2.82731445 128.84104492 1.9140625 128.2734375 C0.91270264 127.66064941 -0.08865723 127.04786133 -1.12036133 126.41650391 C-2.19439209 125.74280762 -3.26842285 125.06911133 -4.375 124.375 C-6.07989325 123.32770318 -7.78479719 122.2804225 -9.49073792 121.23483276 C-11.22646031 120.16954027 -12.95917875 119.09947078 -14.69189453 118.02929688 C-19.36206961 115.16446328 -24.08436916 112.39270786 -28.8125 109.625 C-37.25462573 104.65877058 -45.63497272 99.59449136 -54 94.5 C-65.9394169 87.22924537 -77.94517114 80.07784978 -90 73 C-92.46079182 71.55203833 -94.9212145 70.10345103 -97.3815918 68.65478516 C-100.58695431 66.76853932 -103.79347711 64.88427259 -107 63 C-107.02276505 63.61789398 -107.04553009 64.23578796 -107.06898499 64.87240601 C-107.64425642 80.29548365 -108.38954848 95.70267488 -109.2437439 111.11257935 C-110.87752666 140.72987772 -112.03049873 170.35417461 -113 200 C-113.67678299 199.79626266 -114.35356598 199.59252533 -115.05085754 199.38261414 C-115.94391098 199.11415176 -116.83696442 198.84568939 -117.75708008 198.5690918 C-118.64011307 198.30347946 -119.52314606 198.03786713 -120.43293762 197.76420593 C-122.58022723 197.12496496 -124.73036556 196.50225451 -126.88671875 195.89453125 C-139.16022581 192.40042903 -150.87308509 188.21805736 -163 184 C-163 139.78 -163 95.56 -163 50 C-151.75454325 51.12454567 -151.75454325 51.12454567 -147.66015625 52.05078125 C-146.29685181 52.35399292 -146.29685181 52.35399292 -144.90600586 52.66333008 C-143.96764893 52.87755615 -143.02929199 53.09178223 -142.0625 53.3125 C-140.04435083 53.76077697 -138.02612027 54.20868763 -136.0078125 54.65625 C-135.00524414 54.88054687 -134.00267578 55.10484375 -132.96972656 55.3359375 C-128.46229958 56.3438462 -123.95207636 57.33713684 -119.4375 58.3125 C-118.67123291 58.48370361 -117.90496582 58.65490723 -117.11547852 58.83129883 C-109.06875323 60.56273586 -104.92988537 60.36733041 -98 56 C-96.13786325 54.92188454 -94.27156201 53.85094671 -92.40234375 52.78515625 C-80.96931806 46.20543842 -69.55953639 39.59130281 -58.21533203 32.85913086 C-53.38332786 29.99329198 -48.54154617 27.14589484 -43.68359375 24.32421875 C-42.62092285 23.70683838 -41.55825195 23.08945801 -40.46337891 22.45336914 C-38.43684184 21.27742492 -36.40925635 20.10328466 -34.38037109 18.93139648 C-26.65642867 14.44831101 -19.09018773 9.74091394 -11.66015625 4.78515625 C-10.80292969 4.21667969 -9.94570313 3.64820313 -9.0625 3.0625 C-8.18722656 2.47597656 -7.31195313 1.88945312 -6.41015625 1.28515625 C-4 0 -4 0 0 0 Z " fill="#D8D7D6" transform="translate(430,14)"/>
<path d="M0 0 C1.45849609 1.98657227 1.45849609 1.98657227 3.1484375 4.75390625 C3.77202148 5.76211426 4.39560547 6.77032227 5.03808594 7.80908203 C5.68551758 8.86208496 6.33294922 9.91508789 7 11 C8.23799957 12.94928069 9.48017771 14.89591395 10.7265625 16.83984375 C11.35973389 17.83056885 11.99290527 18.82129395 12.64526367 19.84204102 C18.97471664 29.73859227 25.32518861 39.62017115 31.75048828 49.45483398 C32.71144738 50.9273429 33.66900826 52.40207715 34.62255859 53.87939453 C35.56970723 55.33755352 36.53188869 56.78602286 37.50634766 58.22607422 C38.20896729 59.28785889 38.20896729 59.28785889 38.92578125 60.37109375 C39.34899658 60.99814209 39.77221191 61.62519043 40.20825195 62.27124023 C41 64 41 64 40 67 C37.5287971 68.28392636 35.1311119 69.38089178 32.5625 70.43359375 C31.80839844 70.75280289 31.05429687 71.07201202 30.27734375 71.40089417 C27.85573599 72.42336846 25.42815924 73.4306964 23 74.4375 C21.39410417 75.1116137 19.78862994 75.78673271 18.18359375 76.46289062 C15.85893118 77.44190226 13.53376482 78.41950423 11.2059021 79.3908844 C7.28980316 81.0256364 3.40063625 82.69997574 -0.4609375 84.4609375 C-4 86 -4 86 -6.625 86.1875 C-12.50371552 83.24814224 -16.62655952 77.33727368 -20.8515625 72.43359375 C-23.67619927 69.23405065 -26.5874489 66.11941543 -29.5 63 C-33.42560799 58.79304759 -37.29563898 54.55972401 -41.05078125 50.19921875 C-44.41841865 46.39965992 -47.90475673 42.70820512 -51.3828125 39.00976562 C-54.40803208 35.77778643 -57.28716334 32.50490575 -60 29 C-61.47504067 35.77126756 -62.4886054 42.47134566 -63.1484375 49.3671875 C-63.24583221 50.34466446 -63.34322693 51.32214142 -63.443573 52.32923889 C-63.75903269 55.5106904 -64.06712936 58.69280593 -64.375 61.875 C-64.59313529 64.0893026 -64.81156352 66.30357635 -65.03027344 68.51782227 C-66.12545037 79.66535292 -67.1762198 90.81650093 -68.1796875 101.97265625 C-68.27144257 102.99194214 -68.36319763 104.01122803 -68.45773315 105.06140137 C-68.8933388 109.91583889 -69.32295224 114.77071275 -69.74365234 119.62646484 C-69.89680493 121.36425825 -70.04996221 123.10205124 -70.203125 124.83984375 C-70.26958221 125.6281105 -70.33603943 126.41637726 -70.4045105 127.22853088 C-70.6796367 130.32570103 -71.01257434 133.03772303 -72 136 C-79.26 136 -86.52 136 -94 136 C-94 100.03 -94 64.06 -94 27 C-83.11 26.67 -72.22 26.34 -61 26 C-59.02 23.03 -57.04 20.06 -55 17 C-51.98999023 16.10864258 -51.98999023 16.10864258 -48.80859375 16.39453125 C-47.62571777 16.45068604 -46.4428418 16.50684082 -45.22412109 16.56469727 C-43.97453613 16.64647217 -42.72495117 16.72824707 -41.4375 16.8125 C-26.67747605 17.13780255 -17.96424154 12.8495556 -6.80810547 3.49633789 C-2.58329254 0 -2.58329254 0 0 0 Z " fill="#D8D8D6" transform="translate(361,214)"/>
<path d="M0 0 C11.24545675 1.12454567 11.24545675 1.12454567 15.33984375 2.05078125 C16.24895508 2.25276123 17.15806641 2.45474121 18.09472656 2.6628418 C19.0328418 2.877229 19.97095703 3.09161621 20.9375 3.3125 C22.95164248 3.76382684 24.9659688 4.21433394 26.98046875 4.6640625 C28.48359619 5.00099121 28.48359619 5.00099121 30.01708984 5.34472656 C32.87765098 5.97312287 35.74250612 6.56867848 38.61328125 7.1484375 C39.48154541 7.32463623 40.34980957 7.50083496 41.24438477 7.68237305 C42.87799723 8.01170601 44.51257052 8.33631886 46.14819336 8.65551758 C49.64294949 9.36666206 51.99545977 9.99697318 55 12 C55.36239624 14.19026184 55.36239624 14.19026184 55.34130859 16.94458008 C55.33886139 17.97322678 55.33641418 19.00187347 55.33389282 20.06169128 C55.31394257 21.18215347 55.29399231 22.30261566 55.2734375 23.45703125 C55.26226898 24.62240921 55.25110046 25.78778717 55.23959351 26.98847961 C55.08535452 38.40479764 54.50715475 49.79245383 53.83169556 61.1880188 C53.46984045 67.31444533 53.13390306 73.44226483 52.80078125 79.5703125 C52.73237534 80.82781815 52.66396942 82.08532379 52.5934906 83.38093567 C51.83653114 97.60206217 51.30892562 111.830182 50.8125 126.0625 C50.76998108 127.27932465 50.72746216 128.49614929 50.68365479 129.74984741 C50.44922839 136.49968509 50.22075361 143.24970136 50 150 C49.32321701 149.79626266 48.64643402 149.59252533 47.94914246 149.38261414 C47.05608902 149.11415176 46.16303558 148.84568939 45.24291992 148.5690918 C44.35988693 148.30347946 43.47685394 148.03786713 42.56706238 147.76420593 C40.41977277 147.12496496 38.26963444 146.50225451 36.11328125 145.89453125 C23.83977419 142.40042903 12.12691491 138.21805736 0 134 C0 89.78 0 45.56 0 0 Z " fill="#D8D8D7" transform="translate(267,64)"/>
<path d="M0 0 C3.87410601 2.81753165 6.83916794 5.99707941 9.9296875 9.609375 C12.31999363 12.36950208 14.77775556 15.06356953 17.25 17.75 C17.94875244 18.51038574 17.94875244 18.51038574 18.66162109 19.28613281 C20.10697542 20.85813427 21.55332521 22.4292137 23 24 C33.66204044 35.57674632 33.66204044 35.57674632 37.375 39.875 C42.74159866 46.07230066 48.4051026 52.00967376 54 58 C49.29198232 70.92062192 44.09396945 83.61729164 38.8125 96.3125 C37.11857042 100.39402522 35.42636653 104.47626479 33.734375 108.55859375 C33.1167202 110.0478537 33.1167202 110.0478537 32.48658752 111.56719971 C30.12051462 117.27705571 27.77149597 122.99326593 25.453125 128.72265625 C25.19734177 129.35434219 24.94155853 129.98602814 24.67802429 130.63685608 C23.54665867 133.43352245 22.4196055 136.23183619 21.2980957 139.0324707 C20.22208503 141.69879324 19.11493127 144.34978825 18 147 C17.69416992 147.79374023 17.38833984 148.58748047 17.07324219 149.40527344 C16.19600739 151.47982765 15.38093781 153.22121433 14 155 C10.8203125 156.21875 10.8203125 156.21875 7.125 156.5 C6.46588623 156.5520459 5.80677246 156.6040918 5.12768555 156.65771484 C3.75901136 156.756049 2.3888844 156.83584385 1.01806641 156.89746094 C-0.88431156 156.99412181 -2.78119588 157.1855018 -4.67578125 157.3828125 C-14.28132604 158.04526386 -19.69591237 155.01327904 -27 149 C-27.54865723 148.6393042 -28.09731445 148.2786084 -28.66259766 147.90698242 C-30.96925118 146.29708094 -32.77368477 144.90584423 -33.47363281 142.10424805 C-33.59055506 139.92568151 -33.52561338 137.86517397 -33.375 135.6875 C-33.25125 133.150625 -33.1275 130.61375 -33 128 C-27.72 128 -22.44 128 -17 128 C-16.34 126.02 -15.68 124.04 -15 122 C-13.97902182 119.5295502 -12.94368335 117.07427907 -11.875 114.625 C-11.59785156 113.98433594 -11.32070313 113.34367187 -11.03515625 112.68359375 C-10.35899615 111.12143075 -9.67981293 109.56057685 -9 108 C-9.66 108 -10.32 108 -11 108 C-10.36333116 94.55079473 -9.09222717 81.20089775 -7.6875 67.8125 C-7.46425331 65.66124167 -7.24127504 63.50995547 -7.01855469 61.35864258 C-6.56779202 57.01132362 -6.11467209 52.66425983 -5.65966797 48.31738281 C-5.13441416 43.29615976 -4.61544126 38.2743222 -4.09992981 33.25209045 C-3.73725229 29.72167919 -3.37201219 26.1915367 -3.00601196 22.66146851 C-2.83638199 21.02225131 -2.6675688 19.38294937 -2.49960327 17.74356079 C-2.26815806 15.48889554 -2.03303182 13.23464467 -1.796875 10.98046875 C-1.66635742 9.72129639 -1.53583984 8.46212402 -1.40136719 7.16479492 C-1.08677655 4.68423624 -0.68985775 2.39617078 0 0 Z " fill="#9C7C44" transform="translate(300,242)"/>
<path d="M0 0 C2.7838552 2.7838552 2.54206454 5.57377178 2.82202148 9.32250977 C2.88576965 10.07934052 2.94951782 10.83617126 3.01519775 11.61593628 C3.22571477 14.14046831 3.42332274 16.66584628 3.62109375 19.19140625 C3.7671573 20.97044109 3.91406858 22.74940651 4.06178284 24.52830505 C4.45158412 29.24806768 4.83071253 33.96862784 5.20739746 38.68945312 C5.65500775 44.27828903 6.1140938 49.8661889 6.57187843 55.45419884 C6.64633879 56.36314714 6.72079914 57.27209545 6.79751587 58.20858765 C6.87171375 59.1141679 6.94591164 60.01974815 7.02235794 60.95277023 C7.2459104 63.68916196 7.46764391 66.42569633 7.6890564 69.16226196 C8.38215107 77.69925317 9.09801959 86.23289134 9.89111328 94.76123047 C9.9619579 95.52474666 10.03280252 96.28826284 10.10579395 97.07491589 C10.43533586 100.61260208 10.77055067 104.14962497 11.11460876 107.68592834 C11.72747535 114.15988419 12.14408178 120.49693273 12 127 C9.09931032 124.09931032 8.41900706 120.52508382 7.25 116.6875 C6.85421753 115.41205322 6.85421753 115.41205322 6.45043945 114.11083984 C4.35084122 107.28854946 2.3993415 100.42718047 0.46411133 93.55688477 C-1.76233423 85.71039634 -4.14337111 77.91398542 -6.5625 70.125 C-6.94962158 68.87847656 -7.33674316 67.63195312 -7.7355957 66.34765625 C-10.0815065 58.83753567 -12.50062803 51.36280828 -15.125 43.9453125 C-16.89498758 37.98740787 -17.63051623 34.20265433 -14.64868164 28.50634766 C-14.2902417 27.86487793 -13.93180176 27.2234082 -13.5625 26.5625 C-12.82237793 25.1656499 -12.08281182 23.76850511 -11.34375 22.37109375 C-10.95832031 21.65679199 -10.57289063 20.94249023 -10.17578125 20.20654297 C-8.22793444 16.55109457 -6.40099821 12.83628571 -4.5625 9.125 C-3.89770006 7.79398866 -3.23237973 6.46323704 -2.56640625 5.1328125 C-2.04949219 4.09898438 -1.53257812 3.06515625 -1 2 C-0.67 1.34 -0.34 0.68 0 0 Z " fill="#9D7D46" transform="translate(429,14)"/>
<path d="M0 0 C3.1742822 1.2917426 5.7850953 2.99355014 8.6015625 4.9453125 C10.15230469 6.01072266 10.15230469 6.01072266 11.734375 7.09765625 C12.63929688 7.72800781 13.54421875 8.35835938 14.4765625 9.0078125 C18.13316069 11.44554463 19.94374763 11.24621608 24.2890625 11.1953125 C26.09310547 11.18564453 26.09310547 11.18564453 27.93359375 11.17578125 C31.20247701 11.02080663 34.25826046 10.56867842 37.4765625 10.0078125 C40.15466325 9.89585177 42.79388936 9.96155951 45.4765625 10.0078125 C41.33738007 15.77310231 36.03904867 19.48675068 30.33935547 23.63623047 C26.78560117 26.2528742 23.29104209 28.94751374 19.7890625 31.6328125 C19.05969482 32.19073486 18.33032715 32.74865723 17.57885742 33.32348633 C13.04220145 36.79645288 8.52491512 40.29248088 4.04296875 43.8359375 C2.4765625 45.0078125 2.4765625 45.0078125 0.4765625 46.0078125 C1.97687631 41.9387796 3.92623815 38.31863035 6.1015625 34.5703125 C6.73320312 33.47847656 7.36484375 32.38664062 8.015625 31.26171875 C8.82773437 29.85792969 9.63984375 28.45414062 10.4765625 27.0078125 C13.1165625 22.3878125 15.7565625 17.7678125 18.4765625 13.0078125 C5.6065625 13.0078125 -7.2634375 13.0078125 -20.5234375 13.0078125 C-16.74118711 9.98201219 -12.95082791 7.0246738 -9.0234375 4.1953125 C-8.46785156 3.77572266 -7.91226562 3.35613281 -7.33984375 2.92382812 C-4.84075319 1.13918345 -3.11611071 0.0096474 0 0 Z " fill="#D5D4D0" transform="translate(267.5234375,386.9921875)"/>
<path d="M0 0 C12.87 0 25.74 0 39 0 C37.35281069 4.94156794 35.50722001 8.83475121 32.8125 13.1875 C32.41683838 13.83662354 32.02117676 14.48574707 31.61352539 15.15454102 C28.1496409 20.81632528 24.6038012 26.42627531 21 32 C17.64031505 30.88010502 17.44496222 30.55375423 15.80078125 27.640625 C15.39972168 26.94259766 14.99866211 26.24457031 14.58544922 25.52539062 C14.16537598 24.77451172 13.74530273 24.02363281 13.3125 23.25 C12.42700195 21.7024259 11.54026727 20.15555876 10.65234375 18.609375 C10.21003418 17.83529297 9.76772461 17.06121094 9.31201172 16.26367188 C6.77860949 11.8926809 4.07954698 7.62504735 1.3984375 3.34375 C0 1 0 1 0 0 Z " fill="#9D7D45" transform="translate(247,400)"/>
</svg>
