<?xml version="1.0" encoding="UTF-8"?>
<svg version="1.1" xmlns="http://www.w3.org/2000/svg" width="627" height="398">
<path d="M0 0 C1.42951301 0.34941211 2.85924172 0.69794274 4.28916931 1.0456543 C8.10387801 1.9762538 11.91522389 2.91994606 15.72581863 3.86723328 C18.87982883 4.65020591 22.03531961 5.42711636 25.19080448 6.20412064 C32.30670443 7.95648486 39.42006029 9.71886765 46.53173828 11.48828125 C53.31395032 13.17536473 60.10178387 14.83733322 66.89379883 16.48455811 C71.27269715 17.54923958 75.64785541 18.62862726 80.02191162 19.7130127 C82.01046075 20.20334652 84.00040937 20.68804181 85.99176025 21.16687012 C88.71639367 21.82380648 91.43464193 22.50254143 94.15234375 23.1875 C94.93238266 23.37022461 95.71242157 23.55294922 96.51609802 23.74121094 C102.5910108 25.31332155 105.73324783 28.02967522 109.18334961 33.3684082 C109.69647705 34.32062256 110.20960449 35.27283691 110.73828125 36.25390625 C111.32689941 37.3325293 111.91551758 38.41115234 112.52197266 39.52246094 C113.14120605 40.67520508 113.76043945 41.82794922 114.3984375 43.015625 C115.73358738 45.46742007 117.0756091 47.9154277 118.41796875 50.36328125 C118.75620667 50.98169891 119.09444458 51.60011658 119.44293213 52.23727417 C122.71604183 58.20606448 126.13353927 64.086384 129.5859375 69.953125 C134.28790949 77.96352219 138.94288752 85.99757849 143.5234375 94.078125 C144.30968506 95.45919434 144.30968506 95.45919434 145.11181641 96.86816406 C146.58160777 99.46918598 148.02137633 102.08528774 149.4609375 104.703125 C150.21093018 105.99138184 150.21093018 105.99138184 150.97607422 107.30566406 C153.45174144 111.77635261 155.29925828 115.29575335 154.16845703 120.55273438 C152.59205708 125.34394583 150.52020738 129.88279251 148.3984375 134.453125 C147.58740163 136.23777565 146.77640586 138.02244493 145.96672058 139.80770874 C145.08848151 141.74131336 144.20586382 143.67288468 143.32324219 145.60449219 C140.34471249 152.14054592 137.4493451 158.71378295 134.54122925 165.28137207 C132.84521717 169.1085997 131.14332698 172.93320955 129.44140625 176.7578125 C129.10760452 177.50796631 128.7738028 178.25812012 128.42988586 179.03100586 C127.7652747 180.52454774 127.10063775 182.01807815 126.43597412 183.51159668 C125.48236337 185.65496743 124.52944043 187.79864279 123.57666016 189.94238281 C122.10622443 193.2500973 120.63282674 196.55647741 119.15719604 199.86187744 C118.3687237 201.6296189 117.5828644 203.39852516 116.79711914 205.16748047 C115.37170425 208.35565292 113.92409895 211.53211296 112.4609375 214.703125 C111.95852539 215.80269531 111.45611328 216.90226563 110.93847656 218.03515625 C110.4328418 219.10121094 109.92720703 220.16726563 109.40625 221.265625 C108.96039551 222.21566406 108.51454102 223.16570312 108.05517578 224.14453125 C105.86589465 227.65810954 103.15092993 229.85812879 99.4609375 231.703125 C93.68713926 232.00059033 88.73658695 231.25890293 83.16015625 229.73046875 C81.38386118 229.26591831 79.60695386 228.80370547 77.82958984 228.34326172 C76.8311908 228.08341492 75.83279175 227.82356812 74.80413818 227.55584717 C68.17301271 225.86450159 61.51197285 224.29486937 54.85546875 222.70703125 C53.34127178 222.34494984 51.82710171 221.98275595 50.31295776 221.62045288 C46.41950865 220.68905009 42.52577086 219.75886029 38.63195801 218.82897949 C33.95512182 217.7118738 29.27862743 216.59333832 24.60207939 215.47502708 C20.81269655 214.56889833 17.02325857 213.66300194 13.2336731 212.75772095 C6.43108199 211.13245544 -0.37080854 209.50443231 -7.17041016 207.86669922 C-8.90633171 207.44879372 -8.90633171 207.44879372 -10.67732239 207.02244568 C-12.79641248 206.51194847 -14.91531362 206.00066597 -17.03398132 205.48841858 C-17.96031876 205.26528488 -18.88665619 205.04215118 -19.84106445 204.81225586 C-20.63430618 204.62062363 -21.42754791 204.42899139 -22.24482727 204.23155212 C-23.38047371 203.9699807 -23.38047371 203.9699807 -24.5390625 203.703125 C-25.39376633 203.4777858 -26.24847015 203.25244659 -27.1290741 203.02027893 C-31.07300131 202.501259 -33.60103219 205.06110391 -36.6640625 207.265625 C-60.95964066 223.75268215 -88.43456026 236.1012613 -117.5390625 240.703125 C-118.93898437 240.92742187 -118.93898437 240.92742187 -120.3671875 241.15625 C-122.76885383 241.45844643 -125.11997122 241.61448654 -127.5390625 241.703125 C-128.72371094 241.7546875 -129.90835938 241.80625 -131.12890625 241.859375 C-152.66785498 242.50145748 -172.11250297 236.90908821 -188.2890625 222.203125 C-189.0315625 221.378125 -189.7740625 220.553125 -190.5390625 219.703125 C-191.05597656 219.19007813 -191.57289063 218.67703125 -192.10546875 218.1484375 C-208.08449645 201.49021175 -211.71480968 178.09543422 -211.7265625 155.953125 C-211.73880859 154.75429688 -211.75105469 153.55546875 -211.76367188 152.3203125 C-211.7762629 144.58102722 -211.07794746 137.28856359 -209.5390625 129.703125 C-208.5490625 129.373125 -207.5590625 129.043125 -206.5390625 128.703125 C-206.57386719 130.03150391 -206.57386719 130.03150391 -206.609375 131.38671875 C-206.90189294 151.46598588 -205.08965804 171.4246718 -190.9140625 186.953125 C-178.77402531 198.44197246 -164.19236402 199.19474387 -148.453125 198.9453125 C-141.50135094 198.72500212 -135.18954803 197.76706878 -128.5390625 195.703125 C-127.47486084 195.38045654 -127.47486084 195.38045654 -126.38916016 195.05126953 C-105.38814275 188.57012588 -85.90900705 178.68491334 -67.5390625 166.703125 C-66.90242676 166.28804687 -66.26579102 165.87296875 -65.60986328 165.4453125 C-62.23014016 163.23085719 -58.87372955 160.98508343 -55.5390625 158.703125 C-56.13603127 154.6577675 -57.43881956 151.71371476 -59.453125 148.16796875 C-60.04996094 147.11029297 -60.64679688 146.05261719 -61.26171875 144.96289062 C-62.20337891 143.31836914 -62.20337891 143.31836914 -63.1640625 141.640625 C-63.76863281 140.57134766 -64.37320313 139.50207031 -64.99609375 138.40039062 C-68.64479505 131.96265007 -72.36544607 125.57074872 -76.14501953 119.20898438 C-78.07082684 115.74725298 -78.81941988 113.69821766 -78.5390625 109.703125 C-75.50937741 100.46030913 -71.32674489 91.63224588 -67.23861694 82.82241821 C-65.46460756 78.99799783 -63.70490777 75.16700637 -61.9453125 71.3359375 C-61.58169113 70.54465958 -61.21806976 69.75338165 -60.84342957 68.93812561 C-57.24357806 61.08855365 -53.73382506 53.19992328 -50.23931885 45.30300903 C-49.23286763 43.0298656 -48.2240612 40.75778348 -47.21435547 38.48608398 C-46.88791046 37.75158524 -46.56146545 37.01708649 -46.22512817 36.2603302 C-45.58034022 34.80963298 -44.93554461 33.35893915 -44.29074097 31.9082489 C-42.80452948 28.56206597 -41.32258515 25.21415932 -39.85253906 21.86083984 C-38.36377506 18.46966448 -36.85963036 15.08574868 -35.3515625 11.703125 C-34.93028076 10.73028564 -34.50899902 9.75744629 -34.07495117 8.75512695 C-26.84924204 -7.31258763 -14.65238357 -3.66405126 0 0 Z M30.4609375 90.703125 C30.09331299 91.52401611 29.72568848 92.34490723 29.34692383 93.19067383 C27.95865645 96.29022884 26.57011411 99.38966038 25.18139648 102.48901367 C24.58493526 103.82034592 23.98857787 105.15172469 23.39233398 106.4831543 C22.81305284 107.77667108 22.23361626 109.07011827 21.65402222 110.36349487 C21.08112574 111.64206012 20.50863464 112.92080708 19.93655396 114.19973755 C17.77208535 119.03167019 15.55844164 123.83967959 13.31518555 128.63549805 C12.33365507 130.63834252 12.33365507 130.63834252 12.4609375 132.703125 C17.35034907 134.0169996 22.24324975 135.31660813 27.13989258 136.60327148 C28.8043339 137.04274879 30.46776439 137.4860735 32.13012695 137.93334961 C34.52298243 138.57645187 36.91915959 139.20552465 39.31640625 139.83203125 C40.0561821 140.03405655 40.79595795 140.23608185 41.55815125 140.44422913 C47.11970257 142.01351601 47.11970257 142.01351601 52.4609375 140.703125 C54.27657064 138.03476936 55.46570744 135.15112416 56.703125 132.1796875 C57.0757547 131.32257172 57.4483844 130.46545593 57.83230591 129.58236694 C58.61606155 127.76878108 59.39048727 125.95113898 60.15625 124.12988281 C61.33219458 121.33701444 62.53838828 118.55880343 63.75 115.78125 C64.50703027 114.01901072 65.26229911 112.25601351 66.015625 110.4921875 C66.37695526 109.65773102 66.73828552 108.82327454 67.11056519 107.96353149 C67.43485504 107.18617645 67.7591449 106.40882141 68.09326172 105.60791016 C68.38240448 104.92475739 68.67154724 104.24160461 68.9694519 103.53775024 C69.69742386 101.4943389 69.69742386 101.4943389 68.4609375 98.703125 C66.05288822 97.85815839 63.79668285 97.22364204 61.3203125 96.66015625 C60.60111633 96.48683273 59.88192017 96.31350922 59.14093018 96.13493347 C57.615754 95.77009579 56.08905658 95.41156927 54.56103516 95.05883789 C52.23106926 94.52027835 49.906502 93.96214184 47.58203125 93.40039062 C46.09923607 93.04830742 44.61617082 92.69735931 43.1328125 92.34765625 C42.43992126 92.18207718 41.74703003 92.01649811 41.03314209 91.84590149 C37.44379809 91.02387757 34.14493688 90.51572 30.4609375 90.703125 Z " fill="#31A6AC" transform="translate(346.5390625,117.296875)"/>
<path d="M0 0 C8.52967265 7.83302608 13.3883356 17.2434252 13.96875 28.98828125 C13.93081532 42.64476526 13.93081532 42.64476526 11.4140625 45.64453125 C10.93453125 46.02609375 10.455 46.40765625 9.9609375 46.80078125 C9.84878906 45.27710937 9.84878906 45.27710937 9.734375 43.72265625 C8.75834165 32.75765689 6.63499214 22.86175225 -1.6640625 14.92578125 C-18.74812065 1.68482881 -40.29069185 0.92044028 -60.94140625 3.45703125 C-89.30830336 7.50346517 -116.25057352 17.62091337 -142.0390625 29.80078125 C-142.82829102 30.17009766 -143.61751953 30.53941406 -144.43066406 30.91992188 C-176.56860314 46.06706444 -205.92842325 65.72473727 -232.0390625 89.80078125 C-232.956875 90.61546875 -233.8746875 91.43015625 -234.8203125 92.26953125 C-243.07486852 99.65518663 -250.61893356 107.58281138 -258.0390625 115.80078125 C-258.59239258 116.40937988 -259.14572266 117.01797852 -259.71582031 117.64501953 C-285.38203804 146.00291131 -311.73522385 182.41215766 -310.35546875 222.28125 C-309.78792254 232.19805201 -306.44127123 240.3733874 -299.36328125 247.484375 C-293.41909184 252.38483094 -286.12922809 254.99259769 -279.0390625 257.80078125 C-279.0390625 258.79078125 -279.0390625 259.78078125 -279.0390625 260.80078125 C-296.03883657 263.86183382 -313.80414324 265.54458462 -329.0390625 255.86328125 C-332.36114207 253.44446784 -335.28361997 250.86238406 -338.0390625 247.80078125 C-338.9053125 246.85203125 -339.7715625 245.90328125 -340.6640625 244.92578125 C-348.21503434 234.99029199 -348.03705226 222.73861834 -347.0390625 210.80078125 C-341.95598118 176.7576913 -319.14207753 145.96165701 -297.0390625 120.80078125 C-296.51135254 120.19274658 -295.98364258 119.58471191 -295.43994141 118.95825195 C-291.1409963 114.01307208 -286.75159969 109.16117945 -282.2890625 104.36328125 C-281.63035156 103.64462891 -280.97164063 102.92597656 -280.29296875 102.18554688 C-279.65746094 101.50298828 -279.02195312 100.82042969 -278.3671875 100.1171875 C-277.7990332 99.50302979 -277.23087891 98.88887207 -276.64550781 98.25610352 C-275.0390625 96.80078125 -275.0390625 96.80078125 -272.0390625 95.80078125 C-272.0390625 95.14078125 -272.0390625 94.48078125 -272.0390625 93.80078125 C-270.640625 92.390625 -270.640625 92.390625 -268.6640625 90.73828125 C-265.51728042 88.07011813 -262.44698562 85.34769877 -259.4140625 82.55078125 C-253.21317247 76.96524672 -246.67386148 71.85586618 -240.0390625 66.80078125 C-239.45527832 66.35476562 -238.87149414 65.90875 -238.27001953 65.44921875 C-189.35007287 28.28038396 -60.8388648 -51.28474704 0 0 Z " fill="#46CBBB" transform="translate(497.0390625,49.19921875)"/>
<path d="M0 0 C0.8197996 2.35361821 1.1148421 3.63151889 0.36328125 6.04296875 C0.01652344 6.75066406 -0.33023438 7.45835937 -0.6875 8.1875 C-1.05746094 8.97769531 -1.42742187 9.76789063 -1.80859375 10.58203125 C-2.57198715 12.13134441 -3.35427622 13.67157412 -4.16015625 15.19921875 C-7.69574358 22.25772105 -8.18499343 29.37916927 -6 37 C-5.34 37 -4.68 37 -4 37 C-2 40 -2 40 -2 44 C-1.34 44 -0.68 44 0 44 C2.43160605 47.36683915 3 48.73350364 3 53 C3.66 53 4.32 53 5 53 C7.43160605 56.36683915 8 57.73350364 8 62 C8.99 62.33 9.98 62.66 11 63 C11.33 64.98 11.66 66.96 12 69 C12.66 69 13.32 69 14 69 C14.22276611 69.5264209 14.44553223 70.0528418 14.67504883 70.59521484 C18.66959503 79.82763615 23.61507775 88.52007334 28.51757812 97.29296875 C29.84326189 99.71378258 31.09748085 102.15499918 32.328125 104.625 C33.03050726 105.95872475 33.7335777 107.29208742 34.4375 108.625 C35.01371094 109.77226562 35.58992187 110.91953125 36.18359375 112.1015625 C41.67781074 119.41697468 56.85507309 120.2878834 65.38166046 122.32492447 C67.50958904 122.8338158 69.63601361 123.34861818 71.762146 123.86495972 C77.79531578 125.32930081 83.83056084 126.78492132 89.86767578 128.23291016 C93.5866608 129.12532895 97.30364876 130.02568529 101.0194931 130.93108749 C102.43019963 131.27308441 103.84166644 131.61196072 105.25388336 131.94766617 C107.21304027 132.41352782 109.16958834 132.89032056 111.12597656 133.36767578 C112.23926331 133.63540802 113.35255005 133.90314026 114.49957275 134.1789856 C115.32471375 134.44992035 116.14985474 134.7208551 117 135 C117.33 135.66 117.66 136.32 118 137 C110.41799803 136.28507621 103.1431521 134.48004525 95.75390625 132.69140625 C94.37452041 132.3609256 92.99503756 132.03084964 91.61546326 131.70115662 C87.99969136 130.83601785 84.38514578 129.9658641 80.77087402 129.09448242 C76.39604851 128.04061643 72.01991561 126.99219604 67.64385128 125.94348812 C64.23543357 125.12664213 60.82725131 124.30886174 57.41981506 123.4879303 C55.00786088 122.90793019 52.59493641 122.33194315 50.18084717 121.76089478 C48.19505113 121.28586981 46.21280714 120.79541679 44.2366333 120.28182983 C39.09870737 118.95625155 39.09870737 118.95625155 34.3515625 120.71875 C33.09373864 121.62450517 31.85241731 122.55344834 30.625 123.5 C6.70650803 140.29859415 -21.06603942 152.42510152 -50 157 C-51.39992187 157.22429687 -51.39992187 157.22429687 -52.828125 157.453125 C-55.22979133 157.75532143 -57.58090872 157.91136154 -60 158 C-61.18464844 158.0515625 -62.36929688 158.103125 -63.58984375 158.15625 C-85.12879248 158.79833248 -104.57344047 153.20596321 -120.75 138.5 C-121.4925 137.675 -122.235 136.85 -123 136 C-123.51691406 135.48695313 -124.03382813 134.97390625 -124.56640625 134.4453125 C-140.54543395 117.78708675 -144.17574718 94.39230922 -144.1875 72.25 C-144.19974609 71.05117188 -144.21199219 69.85234375 -144.22460938 68.6171875 C-144.2372004 60.87790222 -143.53888496 53.58543859 -142 46 C-140.515 45.505 -140.515 45.505 -139 45 C-139.03480469 46.32837891 -139.03480469 46.32837891 -139.0703125 47.68359375 C-139.36283044 67.76286088 -137.55059554 87.7215468 -123.375 103.25 C-111.23496281 114.73884746 -96.65330152 115.49161887 -80.9140625 115.2421875 C-73.96228844 115.02187712 -67.65048553 114.06394378 -61 112 C-60.29053223 111.7848877 -59.58106445 111.56977539 -58.85009766 111.34814453 C-37.84908025 104.86700088 -18.36994455 94.98178834 0 83 C0.63663574 82.58492188 1.27327148 82.16984375 1.92919922 81.7421875 C5.30892234 79.52773219 8.66533295 77.28195843 12 75 C11.40303123 70.9546425 10.10024294 68.01058976 8.0859375 64.46484375 C7.48910156 63.40716797 6.89226562 62.34949219 6.27734375 61.25976562 C5.64957031 60.16341797 5.02179688 59.06707031 4.375 57.9375 C3.77042969 56.86822266 3.16585937 55.79894531 2.54296875 54.69726562 C-1.10573255 48.25952507 -4.82638357 41.86762372 -8.60595703 35.50585938 C-10.53176434 32.04412798 -11.28035738 29.99509266 -11 26 C-8.28078026 17.00565778 -4.03246499 8.46679076 0 0 Z " fill="#33A8AD" transform="translate(279,201)"/>
<path d="M0 0 C0.66 0 1.32 0 2 0 C1.96519531 1.32837891 1.96519531 1.32837891 1.9296875 2.68359375 C1.63716956 22.76286088 3.44940446 42.7215468 17.625 58.25 C28.05268587 68.1183464 40.75108948 70.23029443 54.5 70.625 C55.60859375 70.66367187 56.7171875 70.70234375 57.859375 70.7421875 C60.57275797 70.83575243 63.28614661 70.92149483 66 71 C65.67 71.66 65.34 72.32 65 73 C45.36379738 73.65428844 29.5539671 72.85354261 14.3125 59 C7.29949642 51.66370193 1.62045202 40.73083219 0.8046875 30.56640625 C0.86979167 28.7109375 0.93489583 26.85546875 1 25 C0.34 25 -0.32 25 -1 25 C-0.78571895 27.21423757 -0.56719057 29.42809559 -0.3359375 31.640625 C-0.08696307 34.13036933 0.13330168 36.61592407 0.3359375 39.109375 C2.21363823 60.53683814 8.87436369 78.95265654 25.046875 93.890625 C39.7549478 106.16578351 55.39669087 110.1779685 74.25 110.1875 C75.50941406 110.19974609 76.76882812 110.21199219 78.06640625 110.22460938 C84.7826567 110.23507082 91.05808119 109.88625249 97.62402344 108.4309082 C100.13036612 107.97635674 102.45834088 107.92845575 105 108 C89.54089958 116.4354452 65.50055187 114.54132399 49 110 C37.01640798 106.36064804 26.45857273 100.39841415 18 91 C17.22462891 90.23042969 17.22462891 90.23042969 16.43359375 89.4453125 C0.45456605 72.78708675 -3.17574718 49.39230922 -3.1875 27.25 C-3.19974609 26.05117188 -3.21199219 24.85234375 -3.22460938 23.6171875 C-3.23710763 15.93492413 -2.78377819 8.4976358 -1 1 C-0.67 0.67 -0.34 0.34 0 0 Z " fill="#0B2E39" transform="translate(138,246)"/>
<path d="M0 0 C5.13431796 -0.18196218 9.67113892 0.42321154 14.61328125 1.71484375 C15.30890671 1.89004044 16.00453217 2.06523712 16.72123718 2.2457428 C18.17850188 2.61431655 19.63478247 2.98680161 21.09008789 3.36303711 C23.32167845 3.9398725 25.55595684 4.5051275 27.79101562 5.06835938 C29.21110569 5.4290259 30.6310337 5.79033125 32.05078125 6.15234375 C32.71846024 6.3221727 33.38613922 6.49200165 34.0740509 6.66697693 C38.76420279 7.8821014 38.76420279 7.8821014 41 9 C39.65288618 16.54227096 37.02200372 22.90778208 33.75 29.8125 C33.25781982 30.86824219 32.76563965 31.92398438 32.25854492 33.01171875 C28.9561842 40.0660446 25.59242499 47.08799242 22 54 C14.23096095 53.3763982 6.7630236 51.73393016 -0.8137207 49.98876953 C-2.9559024 49.49576485 -5.0998342 49.01101455 -7.24414062 48.52734375 C-17.70797352 46.14601324 -17.70797352 46.14601324 -20 45 C-19.40644629 39.69981613 -17.62627368 35.41863107 -15.4375 30.625 C-15.10814453 29.88894531 -14.77878906 29.15289062 -14.43945312 28.39453125 C-13.63252195 26.59355443 -12.8171174 24.79637819 -12 23 C-11.34 23 -10.68 23 -10 23 C-9.88269531 22.28585938 -9.76539063 21.57171875 -9.64453125 20.8359375 C-7.95909289 13.42000873 -3.88895611 6.48159352 0 0 Z M0 2 C-0.36762451 2.82089111 -0.73524902 3.64178223 -1.11401367 4.48754883 C-2.50228105 7.58710384 -3.89082339 10.68653538 -5.27954102 13.78588867 C-5.87600224 15.11722092 -6.47235963 16.44859969 -7.06860352 17.7800293 C-7.64788466 19.07354608 -8.22732124 20.36699327 -8.80691528 21.66036987 C-9.37981176 22.93893512 -9.95230286 24.21768208 -10.52438354 25.49661255 C-12.68885215 30.32854519 -14.90249586 35.13655459 -17.14575195 39.93237305 C-18.12728243 41.93521752 -18.12728243 41.93521752 -18 44 C-13.11058843 45.3138746 -8.21768775 46.61348313 -3.32104492 47.90014648 C-1.6566036 48.33962379 0.00682689 48.7829485 1.66918945 49.23022461 C4.06204493 49.87332687 6.45822209 50.50239965 8.85546875 51.12890625 C9.5952446 51.33093155 10.33502045 51.53295685 11.09721375 51.74110413 C16.65876507 53.31039101 16.65876507 53.31039101 22 52 C23.81563314 49.33164436 25.00476994 46.44799916 26.2421875 43.4765625 C26.6148172 42.61944672 26.9874469 41.76233093 27.37136841 40.87924194 C28.15512405 39.06565608 28.92954977 37.24801398 29.6953125 35.42675781 C30.87125708 32.63388944 32.07745078 29.85567843 33.2890625 27.078125 C34.04609277 25.31588572 34.80136161 23.55288851 35.5546875 21.7890625 C35.91601776 20.95460602 36.27734802 20.12014954 36.64962769 19.26040649 C36.97391754 18.48305145 37.2982074 17.70569641 37.63232422 16.90478516 C37.92146698 16.22163239 38.21060974 15.53847961 38.5085144 14.83462524 C39.23648636 12.7912139 39.23648636 12.7912139 38 10 C35.59195072 9.15503339 33.33574535 8.52051704 30.859375 7.95703125 C30.14017883 7.78370773 29.42098267 7.61038422 28.67999268 7.43180847 C27.1548165 7.06697079 25.62811908 6.70844427 24.10009766 6.35571289 C21.77013176 5.81715335 19.4455645 5.25901684 17.12109375 4.69726562 C15.63829857 4.34518242 14.15523332 3.99423431 12.671875 3.64453125 C11.97898376 3.47895218 11.28609253 3.31337311 10.57220459 3.14277649 C6.98286059 2.32075257 3.68399938 1.812595 0 2 Z " fill="#10373E" transform="translate(377,206)"/>
<path d="M0 0 C0.99 0.495 0.99 0.495 2 1 C0.99839844 1.845625 -0.00320312 2.69125 -1.03515625 3.5625 C-2.37786496 4.70802771 -3.7202981 5.85387849 -5.0625 7 C-6.04766602 7.82951172 -6.04766602 7.82951172 -7.05273438 8.67578125 C-11.01856754 12.07506682 -14.47797993 15.61729996 -17.85913086 19.59033203 C-22.32771153 24.61996953 -27.14260067 29.32853707 -31.89892578 34.08422852 C-33.76493935 35.95245708 -35.62277149 37.82858419 -37.48046875 39.70507812 C-38.66878215 40.89632102 -39.85756711 42.08709374 -41.046875 43.27734375 C-41.6000238 43.83767807 -42.15317261 44.39801239 -42.7230835 44.97532654 C-45.13150394 47.36943513 -46.73242594 48.91080865 -50 50 C-51.52216957 51.67324633 -52.97187505 53.41324132 -54.375 55.1875 C-55.16519531 56.1775 -55.95539063 57.1675 -56.76953125 58.1875 C-57.50558594 59.115625 -58.24164063 60.04375 -59 61 C-60.01597595 62.2331846 -61.03556968 63.46342259 -62.0625 64.6875 C-62.701875 65.450625 -63.34125 66.21375 -64 67 C-64 62.77424391 -61.60196057 60.83222198 -58.9375 57.8125 C-58.47150391 57.27302734 -58.00550781 56.73355469 -57.52539062 56.17773438 C-56.02499845 54.44462832 -54.51260995 52.72244773 -53 51 C-52.4519873 50.36876221 -51.90397461 49.73752441 -51.33935547 49.0871582 C-47.06093396 44.16546059 -42.69130068 39.33756576 -38.25 34.5625 C-37.59128906 33.84384766 -36.93257812 33.12519531 -36.25390625 32.38476562 C-35.61839844 31.70220703 -34.98289063 31.01964844 -34.328125 30.31640625 C-33.47589355 29.39516968 -33.47589355 29.39516968 -32.60644531 28.45532227 C-31 27 -31 27 -28 26 C-28 25.34 -28 24.68 -28 24 C-26.6015625 22.58984375 -26.6015625 22.58984375 -24.625 20.9375 C-21.4015047 18.20206913 -18.24484718 15.41577796 -15.125 12.5625 C-10.25033071 8.15713117 -5.17735034 4.04273952 0 0 Z " fill="#266C64" transform="translate(253,119)"/>
<path d="M0 0 C1.21702254 3.65106763 0.73194434 4.17952271 -0.89453125 7.5390625 C-1.34666992 8.49184082 -1.79880859 9.44461914 -2.26464844 10.42626953 C-2.77543945 11.48185059 -3.28623047 12.53743164 -3.8125 13.625 C-4.92197855 15.96696892 -6.02822557 18.3101602 -7.12890625 20.65625 C-7.42973114 21.2962796 -7.73055603 21.9363092 -8.04049683 22.59573364 C-10.62215022 28.12037054 -13.08762202 33.69267885 -15.52734375 39.28125 C-15.9169075 40.17355316 -16.30647125 41.06585632 -16.70783997 41.98519897 C-18.2714304 45.5719717 -19.83231908 49.15988191 -21.38638306 52.75079346 C-25.20008501 61.56039807 -29.0543498 70.34900147 -33.234375 78.9921875 C-33.54030579 79.64534943 -33.84623657 80.29851135 -34.16143799 80.97146606 C-36.50643411 85.71529468 -39.26746372 88.63373186 -44 91 C-49.78842765 91.29940143 -54.43550155 90.5898567 -60 89 C-60 88.67 -60 88.34 -60 88 C-54.39 88.33 -48.78 88.66 -43 89 C-42.505 87.515 -42.505 87.515 -42 86 C-41.37561035 85.3908374 -40.7512207 84.7816748 -40.10791016 84.15405273 C-37.7508516 81.7453977 -36.64859654 79.60216033 -35.2734375 76.53515625 C-34.7990625 75.48779297 -34.3246875 74.44042969 -33.8359375 73.36132812 C-33.35382813 72.27271484 -32.87171875 71.18410156 -32.375 70.0625 C-31.88515625 68.97775391 -31.3953125 67.89300781 -30.890625 66.77539062 C-28.83882244 62.21489504 -26.83156975 57.65396272 -25 53 C-24.34 53 -23.68 53 -23 53 C-22.9175 52.360625 -22.835 51.72125 -22.75 51.0625 C-21.70146284 46.78097325 -19.84980439 42.98941148 -18 39 C-17.16656805 37.14587766 -16.33323717 35.29170988 -15.5 33.4375 C-14.07177901 30.28931776 -12.59975281 27.18904269 -11 24.125 C-9.22559283 20.6548892 -7.86492043 17.08699761 -6.5 13.4375 C-4.69631761 8.63512583 -2.72477179 4.33945137 0 0 Z " fill="#0D2D34" transform="translate(490,258)"/>
<path d="M0 0 C0.8197996 2.35361821 1.1148421 3.63151889 0.36328125 6.04296875 C0.01652344 6.75066406 -0.33023437 7.45835937 -0.6875 8.1875 C-1.05746094 8.97769531 -1.42742187 9.76789063 -1.80859375 10.58203125 C-2.57198715 12.13134441 -3.35427622 13.67157412 -4.16015625 15.19921875 C-7.69574358 22.25772105 -8.18499343 29.37916927 -6 37 C-5.34 37 -4.68 37 -4 37 C-2 40 -2 40 -2 44 C-1.34 44 -0.68 44 0 44 C2.43160605 47.36683915 3 48.73350364 3 53 C3.66 53 4.32 53 5 53 C7.43160605 56.36683915 8 57.73350364 8 62 C9.485 62.495 9.485 62.495 11 63 C11.33 64.98 11.66 66.96 12 69 C12.66 69 13.32 69 14 69 C16 72 16 72 16 75 C14.02 75.495 14.02 75.495 12 76 C11.89510254 75.12617676 11.79020508 74.25235352 11.68212891 73.35205078 C10.96656201 69.83568233 9.85959016 67.47201148 8.0859375 64.3671875 C7.48910156 63.31273437 6.89226562 62.25828125 6.27734375 61.171875 C5.33568359 59.53992188 5.33568359 59.53992188 4.375 57.875 C3.77042969 56.81023437 3.16585938 55.74546875 2.54296875 54.6484375 C-1.10992989 48.23055162 -4.83580119 41.85770846 -8.60595703 35.50805664 C-10.53071797 32.04517238 -11.28039835 29.99567644 -11 26 C-8.28078026 17.00565778 -4.03246499 8.46679076 0 0 Z " fill="#0C303B" transform="translate(279,201)"/>
<path d="M0 0 C12.28057772 2.66284545 24.47184154 5.72337245 36.67681885 8.71021271 C40.76305331 9.71020574 44.85004171 10.70685334 48.93896484 11.69580078 C52.9127743 12.65696337 56.88456012 13.62608808 60.85501099 14.60102844 C62.36625492 14.97066689 63.87820101 15.33744654 65.39083862 15.70133972 C67.49429168 16.20795176 69.59498691 16.7247391 71.6953125 17.24414062 C72.89172363 17.53567017 74.08813477 17.82719971 75.32080078 18.12756348 C76.20493652 18.41546753 77.08907227 18.70337158 78 19 C78.495 19.99 78.495 19.99 79 21 C71.42362472 20.28025327 64.14268468 18.49819501 56.75390625 16.7265625 C55.37448613 16.39861875 53.99500397 16.07093586 52.61546326 15.74349976 C49.73442963 15.05865355 46.85414418 14.37076655 43.97436523 13.68066406 C40.30666672 12.80198907 36.63724325 11.93078196 32.96722507 11.06185341 C30.12071602 10.38704397 27.27515402 9.70830842 24.42985344 9.02842331 C23.07831697 8.70594354 21.72650195 8.3846286 20.37439156 8.06456375 C13.11989878 6.34486921 6.02804153 4.49561939 -1 2 C-0.67 1.34 -0.34 0.68 0 0 Z " fill="#134149" transform="translate(318,317)"/>
<path d="M0 0 C2.97 0.495 2.97 0.495 6 1 C6 1.66 6 2.32 6 3 C6.72960937 3.23460937 7.45921875 3.46921875 8.2109375 3.7109375 C14.39424197 6.5687673 19.59429567 13.03918464 22 19.375 C22.69997536 21.91241068 23.36979563 24.44542155 24 27 C24.25427959 20.89728981 23.63830723 15.87863183 22 10 C21.6435691 8.00398694 21.30077325 6.005155 21 4 C28.12717489 12.42302487 27.25716134 24.08764191 26.546875 34.46875 C25.94183387 37.26922607 25.20918325 38.24215526 23 40 C22.92523438 38.98421875 22.85046875 37.9684375 22.7734375 36.921875 C21.78447972 25.81167945 19.64372122 15.88139347 11.0625 8 C7.57878681 5.25464606 3.92977503 3.04675783 0 1 C0 0.67 0 0.34 0 0 Z " fill="#163C37" transform="translate(484,56)"/>
<path d="M0 0 C1.42450473 4.27351418 -0.49813075 6.97060213 -2.25 10.875 C-9.27279001 27.39706498 -10.52773184 43.28549216 -8 61 C-12.33714079 56.66285921 -12.26643765 49.09459638 -12.37988281 43.21435547 C-12.37827148 42.44236816 -12.37666016 41.67038086 -12.375 40.875 C-12.37258301 39.64547607 -12.37258301 39.64547607 -12.37011719 38.39111328 C-12.09306212 24.39439977 -7.09522873 11.90984823 0 0 Z " fill="#153935" transform="translate(196,223)"/>
<path d="M0 0 C4.6743766 0.90148692 8.57095471 3.30939603 12.734375 5.52734375 C20.56313856 9.05777899 28.02488707 9.38169532 36.5 9.625 C37.60859375 9.66367187 38.7171875 9.70234375 39.859375 9.7421875 C42.57275797 9.83575243 45.28614661 9.92149483 48 10 C47.67 10.66 47.34 11.32 47 12 C29.92338731 12.56900158 15.30495109 12.69814718 1 2 C0.67 1.34 0.34 0.68 0 0 Z " fill="#103B46" transform="translate(156,307)"/>
<path d="M0 0 C1.38315373 3.86698613 0.73006194 7.18828925 0.125 11.1875 C-0.05804688 12.43917969 -0.24109375 13.69085938 -0.4296875 14.98046875 C-1 18 -1 18 -2 19 C-2.68113847 29.64476867 -2.2318835 38.57807794 4.07421875 47.37109375 C4.37972656 47.90863281 4.68523437 48.44617188 5 49 C4.67 49.66 4.34 50.32 4 51 C-4.64139733 41.1666858 -4.66690572 29.87981518 -4.20556641 17.49462891 C-3.70771292 11.45298176 -1.91781102 5.72774808 0 0 Z " fill="#18403C" transform="translate(154,245)"/>
<path d="M0 0 C0.33 0.66 0.66 1.32 1 2 C0.06553465 4.03144641 -0.93224776 6.03533587 -2 8 C-1.34950684 8.10812012 -0.69901367 8.21624023 -0.02880859 8.32763672 C8.29484449 9.76875121 16.40163707 11.81622028 24.56640625 13.96484375 C25.58347656 14.22652344 26.60054688 14.48820312 27.6484375 14.7578125 C28.55770996 14.9964502 29.46698242 15.23508789 30.40380859 15.48095703 C33.00803711 16.00160682 35.35205336 16.09493202 38 16 C38 16.66 38 17.32 38 18 C30.23096095 17.3763982 22.7630236 15.73393016 15.1862793 13.98876953 C13.0440976 13.49576485 10.9001658 13.01101455 8.75585938 12.52734375 C-1.70797352 10.14601324 -1.70797352 10.14601324 -4 9 C-3.38461538 3.46153846 -3.38461538 3.46153846 -1.4375 1.125 C-0.963125 0.75375 -0.48875 0.3825 0 0 Z " fill="#153936" transform="translate(361,242)"/>
<path d="M0 0 C4.89828766 -0.15247588 9.06866566 0.30804275 13.80859375 1.53125 C15.04931641 1.84707031 16.29003906 2.16289062 17.56835938 2.48828125 C19.48358398 2.98908203 19.48358398 2.98908203 21.4375 3.5 C22.7543609 3.83800564 24.07141688 4.17525223 25.38867188 4.51171875 C28.59444299 5.33371134 31.79802917 6.16334883 35 7 C35 7.33 35 7.66 35 8 C27.82871274 8.32810438 21.60057229 7.49652375 14.6875 5.625 C13.82060547 5.40328125 12.95371094 5.1815625 12.06054688 4.953125 C7.92048958 3.87448938 3.92475995 2.73174975 0 1 C0 0.67 0 0.34 0 0 Z " fill="#104352" transform="translate(377,206)"/>
<path d="M0 0 C0.66 0 1.32 0 2 0 C2 3.96 2 7.92 2 12 C1.34 11.01 0.68 10.02 0 9 C-0.66 19.56 -1.32 30.12 -2 41 C-2.33 41 -2.66 41 -3 41 C-3.0589002 36.58339099 -3.09389517 32.16688531 -3.125 27.75 C-3.14175781 26.51507813 -3.15851563 25.28015625 -3.17578125 24.0078125 C-3.21694838 16.18605777 -2.83794678 8.63246712 -1 1 C-0.67 0.67 -0.34 0.34 0 0 Z " fill="#061217" transform="translate(138,246)"/>
<path d="M0 0 C0.33 0 0.66 0 1 0 C1 5.61 1 11.22 1 17 C0.34 17 -0.32 17 -1 17 C-0.9278125 17.60585938 -0.855625 18.21171875 -0.78125 18.8359375 C-0.1075063 24.91834595 0.11713363 30.88302138 0 37 C-1.66323821 34.08305015 -2.24905273 32.0057389 -2.23046875 28.65625 C-2.22926025 27.82714111 -2.22805176 26.99803223 -2.22680664 26.14379883 C-2.21383545 25.27134521 -2.20086426 24.3988916 -2.1875 23.5 C-2.18032959 22.60885498 -2.17315918 21.71770996 -2.16577148 20.79956055 C-1.93498602 1.93498602 -1.93498602 1.93498602 0 0 Z " fill="#0F4960" transform="translate(138,254)"/>
<path d="M0 0 C2.54289914 4.73280824 3.72522589 9.77708874 5.125 14.9375 C5.40214844 15.92685547 5.67929688 16.91621094 5.96484375 17.93554688 C6.22652344 18.89396484 6.48820313 19.85238281 6.7578125 20.83984375 C6.9964502 21.70988037 7.23508789 22.57991699 7.48095703 23.47631836 C8.01131694 26.05502503 8.09358792 28.37512365 8 31 C4.43414086 27.19362837 3.56556542 22.6638336 2.3125 17.75 C2.08755859 16.92886719 1.86261719 16.10773438 1.63085938 15.26171875 C0.26499698 10.02245328 -0.23065464 5.41103317 0 0 Z " fill="#0A2D3C" transform="translate(136,287)"/>
<path d="M0 0 C-3.37569332 3.37569332 -8.0992595 3.90135218 -12.625 5.125 C-13.59824219 5.40214844 -14.57148438 5.67929687 -15.57421875 5.96484375 C-21.23399679 7.51118957 -26.1352781 8.32040048 -32 8 C-32 7.67 -32 7.34 -32 7 C-31.16339844 6.84144531 -30.32679688 6.68289063 -29.46484375 6.51953125 C-21.36411867 4.89579787 -13.8341926 2.71549636 -6.08203125 -0.109375 C-3 -1 -3 -1 0 0 Z " fill="#123638" transform="translate(236,309)"/>
<path d="M0 0 C0.66796875 1.7109375 0.66796875 1.7109375 1 4 C-0.07421875 6.2265625 -0.07421875 6.2265625 -1.6875 8.625 C-4.44503936 12.93725412 -6.40649236 17.16185602 -8.140625 21.96875 C-9 24 -9 24 -11 26 C-10.32065218 21.29964754 -8.54418431 17.29833842 -6.625 13 C-6.16867188 11.95199219 -6.16867188 11.95199219 -5.703125 10.8828125 C-4.02730009 7.08714069 -2.23432614 3.50912571 0 0 Z " fill="#13332F" transform="translate(166,218)"/>
<path d="M0 0 C16.26923077 3.26923077 16.26923077 3.26923077 20 7 C12.64987044 6.42351925 5.98575424 4.28953836 -1 2 C-0.67 1.34 -0.34 0.68 0 0 Z " fill="#0D3644" transform="translate(318,317)"/>
<path d="M0 0 C6 3 12 6 18 9 C18 9.33 18 9.66 18 10 C12.33812045 10.89398098 8.84897003 8.50938202 4.171875 5.703125 C1.91555947 3.93378405 1.03309207 2.64012418 0 0 Z " fill="#0F4050" transform="translate(164,342)"/>
<path d="M0 0 C4.13822218 1.62996896 8.22768778 3.36655355 12.3125 5.125 C13.28026367 5.54072266 13.28026367 5.54072266 14.26757812 5.96484375 C15.84529005 6.64267554 17.42267826 7.32126074 19 8 C19 8.99 19 9.98 19 11 C17.02 11 15.04 11 13 11 C13.99 10.67 14.98 10.34 16 10 C16 9.34 16 8.68 16 8 C15.195625 7.938125 14.39125 7.87625 13.5625 7.8125 C8.88047066 6.74466875 4.97307322 4.68496106 1 2 C0.67 1.34 0.34 0.68 0 0 Z " fill="#163A36" transform="translate(199,299)"/>
<path d="M0 0 C0.66 0.33 1.32 0.66 2 1 C0.87926138 1.83905565 -0.24674547 2.67107831 -1.375 3.5 C-2.31472656 4.19609375 -2.31472656 4.19609375 -3.2734375 4.90625 C-5 6 -5 6 -7 6 C-7.33 6.99 -7.66 7.98 -8 9 C-8.99 9.66 -9.98 10.32 -11 11 C-12.32 10.67 -13.64 10.34 -15 10 C-10.05 6.7 -5.1 3.4 0 0 Z " fill="#1B4B45" transform="translate(292,92)"/>
<path d="M0 0 C1.5 1.25 1.5 1.25 3 3 C3 4.32 3 5.64 3 7 C3.66 7 4.32 7 5 7 C7 10 7 10 7 13 C5.68 13.33 4.36 13.66 3 14 C2.87625 13.175 2.7525 12.35 2.625 11.5 C1.92897845 7.60227933 0.99119051 3.83260331 0 0 Z " fill="#114351" transform="translate(288,263)"/>
<path d="M0 0 C0.33 0 0.66 0 1 0 C1.74737188 5.97897503 -0.6768102 9.32379721 -4 14 C-4.33 13.34 -4.66 12.68 -5 12 C-4.26821134 9.92803369 -3.44100997 7.8891448 -2.5625 5.875 C-2.08941406 4.77929688 -1.61632812 3.68359375 -1.12890625 2.5546875 C-0.75636719 1.71164062 -0.38382812 0.86859375 0 0 Z " fill="#0F3E4C" transform="translate(465,311)"/>
<path d="M0 0 C1.65 0 3.3 0 5 0 C4.06027344 0.11601562 4.06027344 0.11601562 3.1015625 0.234375 C0.83784572 0.79019416 0.83784572 0.79019416 0.0234375 2.890625 C-0.19054687 3.66921875 -0.40453125 4.4478125 -0.625 5.25 C-0.97884766 6.46236328 -0.97884766 6.46236328 -1.33984375 7.69921875 C-1.55769531 8.45847656 -1.77554687 9.21773437 -2 10 C-2.64896236 11.67363977 -3.30580437 13.34461042 -4 15 C-5.37400775 11.87725512 -4.92162365 10.79099641 -3.6875 7.5 C-0.98113208 1.88679245 -0.98113208 1.88679245 0 0 Z " fill="#0D2C31" transform="translate(376,207)"/>
<path d="M0 0 C0.66 0.33 1.32 0.66 2 1 C-0.02907644 4.04361466 -0.7305507 4.59706797 -3.875 6.0625 C-4.55304688 6.38347656 -5.23109375 6.70445313 -5.9296875 7.03515625 C-6.61289062 7.35355469 -7.29609375 7.67195313 -8 8 C-9.33517621 8.66296812 -10.66906255 9.32856294 -12 10 C-8.29909479 6.0747975 -4.45040344 3.05419844 0 0 Z " fill="#194540" transform="translate(275,103)"/>
<path d="M0 0 C0.33 0.66 0.66 1.32 1 2 C0.06553465 4.03144641 -0.93224776 6.03533587 -2 8 C-1.01 8.33 -0.02 8.66 1 9 C-0.65 9 -2.3 9 -4 9 C-3.38461538 3.46153846 -3.38461538 3.46153846 -1.4375 1.125 C-0.963125 0.75375 -0.48875 0.3825 0 0 Z " fill="#0B2E3A" transform="translate(361,242)"/>
<path d="M0 0 C0.99 0.495 0.99 0.495 2 1 C2 2.32 2 3.64 2 5 C2.66 5 3.32 5 4 5 C5.6875 7.375 5.6875 7.375 7 10 C6.67 10.66 6.34 11.32 6 12 C1.6409923 8.51279384 1.05447817 5.27239085 0 0 Z " fill="#104556" transform="translate(275,240)"/>
<path d="M0 0 C-0.55774272 3.23490776 -1.37211508 4.97855006 -4 7 C-4.99 7 -5.98 7 -7 7 C-5.84933177 3.5479953 -4.01648928 0 0 0 Z " fill="#0D3A4B" transform="translate(454,340)"/>
<path d="M0 0 C1.14926266 0.95421808 2.29430541 1.91352045 3.4375 2.875 C4.07558594 3.40867187 4.71367187 3.94234375 5.37109375 4.4921875 C7 6 7 6 8 8 C4.21479387 7.45925627 2.40822445 5.92427254 0 3 C0 2.01 0 1.02 0 0 Z " fill="#0A2732" transform="translate(150,299)"/>
<path d="M0 0 C0.75 1.5625 0.75 1.5625 1 4 C-0.13084437 6.50286409 -1.52139516 8.67007722 -3 11 C-3.75 9.4375 -3.75 9.4375 -4 7 C-2.86915563 4.49713591 -1.47860484 2.32992278 0 0 Z " fill="#1D4F49" transform="translate(166,218)"/>
<path d="M0 0 C3 2 3 2 3.51171875 3.9453125 C3.67447917 5.96354167 3.83723958 7.98177083 4 10 C1.16625119 6.79663178 0.4794463 4.21912747 0 0 Z " fill="#092531" transform="translate(140,308)"/>
<path d="M0 0 C0.66 0 1.32 0 2 0 C2 3.96 2 7.92 2 12 C1.67 12 1.34 12 1 12 C0.855625 10.9275 0.71125 9.855 0.5625 8.75 C0.10012053 5.20640191 0.10012053 5.20640191 -0.625 2.625 C-0.74875 2.08875 -0.8725 1.5525 -1 1 C-0.67 0.67 -0.34 0.34 0 0 Z " fill="#060D10" transform="translate(138,246)"/>
<path d="M0 0 C2.32472205 2.85306797 3.7508258 5.54074837 5 9 C2 8 2 8 0 5 C-0.125 2.3125 -0.125 2.3125 0 0 Z " fill="#1C4D48" transform="translate(188,284)"/>
</svg>
