<?xml version="1.0" encoding="UTF-8"?>
<svg version="1.1" xmlns="http://www.w3.org/2000/svg" width="563" height="444">
<path d="M0 0 C0.66 0.33 1.32 0.66 2 1 C2.44921875 3.36328125 2.44921875 3.36328125 2.6875 6.3125 C2.77386719 7.27800781 2.86023438 8.24351562 2.94921875 9.23828125 C2.99537006 11.74820274 2.75083762 13.62328843 2 16 C3.39025391 15.98259766 3.39025391 15.98259766 4.80859375 15.96484375 C6.00613281 15.95582031 7.20367187 15.94679687 8.4375 15.9375 C9.63246094 15.92589844 10.82742188 15.91429687 12.05859375 15.90234375 C15 16 15 16 16 17 C16.08758003 18.99964982 16.10696576 21.0023611 16.09765625 23.00390625 C16.09443359 24.21884766 16.09121094 25.43378906 16.08789062 26.68554688 C16.07951172 27.96494141 16.07113281 29.24433594 16.0625 30.5625 C16.05798828 31.84576172 16.05347656 33.12902344 16.04882812 34.45117188 C16.03699545 37.63416022 16.02051068 40.81705762 16 44 C13.43788925 44.19569589 10.87567609 44.38180612 8.3125 44.5625 C7.2306543 44.64661133 7.2306543 44.64661133 6.12695312 44.73242188 C2.19294206 45.00187469 -1.16773993 44.86422266 -5 44 C-5.16865537 39.42871289 -5.3290954 34.85723555 -5.48217773 30.28540039 C-5.53529982 28.73258861 -5.59060264 27.17984974 -5.64819336 25.62719727 C-5.73094381 23.38573934 -5.80565221 21.14412978 -5.87890625 18.90234375 C-5.90594131 18.21663803 -5.93297638 17.53093231 -5.96083069 16.82444763 C-6.0955534 12.39885224 -5.73365356 8.34510647 -5 4 C-3.35 3.67 -1.7 3.34 0 3 C0 2.01 0 1.02 0 0 Z M2 22 C2 27.61 2 33.22 2 39 C4.31 39 6.62 39 9 39 C9 33.39 9 27.78 9 22 C6.69 22 4.38 22 2 22 Z " fill="#262626" transform="translate(422,197)"/>
<path d="M0 0 C0.66 0 1.32 0 2 0 C2.19916016 0.93972656 2.19916016 0.93972656 2.40234375 1.8984375 C2.57894531 2.71570313 2.75554687 3.53296875 2.9375 4.375 C3.11152344 5.18710938 3.28554687 5.99921875 3.46484375 6.8359375 C3.92330693 9.029463 3.92330693 9.029463 5 11 C4.34 11 3.68 11 3 11 C3.00785522 12.43835205 3.00785522 12.43835205 3.01586914 13.90576172 C3.03394679 17.45783559 3.04544215 21.00990537 3.05493164 24.56201172 C3.05996552 26.10043013 3.06679308 27.63884375 3.07543945 29.17724609 C3.08754639 31.38640526 3.09323769 33.59550126 3.09765625 35.8046875 C3.10281754 36.49432587 3.10797882 37.18396423 3.11329651 37.89450073 C3.11387171 42.77225659 3.11387171 42.77225659 2 45 C1.34 45 0.68 45 0 45 C0 44.34 0 43.68 0 43 C-5.61 43 -11.22 43 -17 43 C-17 33.76 -17 24.52 -17 15 C-12.38 15 -7.76 15 -3 15 C-3 13.68 -3 12.36 -3 11 C-3.66 10.67 -4.32 10.34 -5 10 C-4.67 9.67 -4.34 9.34 -4 9 C-3.63239269 6.67182036 -3.29758419 4.3381615 -3 2 C-2.01 2 -1.02 2 0 2 C0 1.34 0 0.68 0 0 Z M-11 21 C-11.02684679 23.64590014 -11.04676357 26.29153096 -11.0625 28.9375 C-11.07087891 29.69224609 -11.07925781 30.44699219 -11.08789062 31.22460938 C-11.09652441 33.14994313 -11.05224333 35.07535581 -11 37 C-10.67 37.33 -10.34 37.66 -10 38 C-7.69 38 -5.38 38 -3 38 C-3 32.39 -3 26.78 -3 21 C-5.64 21 -8.28 21 -11 21 Z " fill="#404040" transform="translate(174,198)"/>
<path d="M0 0 C0.66 0 1.32 0 2 0 C2 0.66 2 1.32 2 2 C3.7015625 1.9690625 3.7015625 1.9690625 5.4375 1.9375 C9 2 9 2 10 3 C10.08758003 4.99964982 10.10696576 7.0023611 10.09765625 9.00390625 C10.09443359 10.21884766 10.09121094 11.43378906 10.08789062 12.68554688 C10.07951172 13.96494141 10.07113281 15.24433594 10.0625 16.5625 C10.05798828 17.84576172 10.05347656 19.12902344 10.04882812 20.45117188 C10.03699545 23.63416022 10.02051068 26.81705762 10 30 C2.80827843 31.07875823 -3.78194245 30.7938642 -11 30 C-11.02886338 25.52084672 -11.04675187 21.04171709 -11.0625 16.5625 C-11.07087891 15.28310547 -11.07925781 14.00371094 -11.08789062 12.68554688 C-11.09111328 11.47060547 -11.09433594 10.25566406 -11.09765625 9.00390625 C-11.10289307 7.87799072 -11.10812988 6.7520752 -11.11352539 5.59204102 C-11 3 -11 3 -10 2 C-8.31391034 1.92794489 -6.62499341 1.91613932 -4.9375 1.9375 C-4.01839844 1.94652344 -3.09929687 1.95554688 -2.15234375 1.96484375 C-1.44207031 1.97644531 -0.73179687 1.98804688 0 2 C0 1.34 0 0.68 0 0 Z M-4 8 C-4 13.61 -4 19.22 -4 25 C-2.35 25 -0.7 25 1 25 C1.02691685 22.54159395 1.04679802 20.08348118 1.0625 17.625 C1.07087891 16.92632812 1.07925781 16.22765625 1.08789062 15.5078125 C1.1835442 11.62704624 1.1835442 11.62704624 0 8 C-1.32 8 -2.64 8 -4 8 Z M3 8 C1.46733418 11.06533164 1.89723529 14.26754272 1.9375 17.625 C1.94201172 18.33140625 1.94652344 19.0378125 1.95117188 19.765625 C1.96296125 21.51045275 1.98089676 23.255237 2 25 C2.66 25 3.32 25 4 25 C4 19.39 4 13.78 4 8 C3.67 8 3.34 8 3 8 Z " fill="#3D3D3D" transform="translate(138,211)"/>
<path d="M0 0 C0 0.66 0 1.32 0 2 C1.32 2.33 2.64 2.66 4 3 C2.68 3 1.36 3 0 3 C0 5.97 0 8.94 0 12 C2.64 12 5.28 12 8 12 C8 9.03 8 6.06 8 3 C7.01 2.67 6.02 2.34 5 2 C5.99 2 6.98 2 8 2 C8 1.34 8 0.68 8 0 C10.875 -0.1875 10.875 -0.1875 14 0 C14.66 0.99 15.32 1.98 16 3 C15.34 3 14.68 3 14 3 C14 13.56 14 24.12 14 35 C12.02 35 10.04 35 8 35 C8 29.06 8 23.12 8 17 C5.36 17 2.72 17 0 17 C0 22.94 0 28.88 0 35 C-1.98 35 -3.96 35 -6 35 C-6 24.44 -6 13.88 -6 3 C-6.99 2.67 -7.98 2.34 -9 2 C-5.5647952 -0.29013653 -4.014669 -0.17842973 0 0 Z " fill="#474747" transform="translate(364,206)"/>
<path d="M0 0 C0.66 0 1.32 0 2 0 C2 0.66 2 1.32 2 2 C2.95712891 1.98259766 2.95712891 1.98259766 3.93359375 1.96484375 C4.75988281 1.95582031 5.58617187 1.94679687 6.4375 1.9375 C7.26121094 1.92589844 8.08492188 1.91429687 8.93359375 1.90234375 C11 2 11 2 12 3 C12.08758003 4.99964982 12.10696576 7.0023611 12.09765625 9.00390625 C12.09443359 10.21884766 12.09121094 11.43378906 12.08789062 12.68554688 C12.07951172 13.96494141 12.07113281 15.24433594 12.0625 16.5625 C12.05798828 17.84576172 12.05347656 19.12902344 12.04882812 20.45117188 C12.03699545 23.63416022 12.02051068 26.81705762 12 30 C10.10989942 30.18133318 8.21913542 30.35575841 6.328125 30.52734375 C5.2752832 30.62523193 4.22244141 30.72312012 3.13769531 30.82397461 C-1.04520395 31.05863617 -4.86340922 30.62048862 -9 30 C-8.67 24.39 -8.34 18.78 -8 13 C-5.36 13 -2.72 13 0 13 C0 11.35 0 9.7 0 8 C-2.64 8 -5.28 8 -8 8 C-8.38218767 6.34385343 -8.71395102 4.67542976 -9 3 C-8 2 -8 2 -6.15234375 1.90234375 C-4.1015625 1.93489583 -2.05078125 1.96744792 0 2 C0 1.34 0 0.68 0 0 Z M2 8 C2 9.65 2 11.3 2 13 C3.32 13 4.64 13 6 13 C6 11.35 6 9.7 6 8 C4.68 8 3.36 8 2 8 Z M-3 19 C-3 20.65 -3 22.3 -3 24 C-2.01 24.33 -1.02 24.66 0 25 C0 23.02 0 21.04 0 19 C-0.99 19 -1.98 19 -3 19 Z M2 19 C2 20.98 2 22.96 2 25 C3.32 25 4.64 25 6 25 C6 23.02 6 21.04 6 19 C4.68 19 3.36 19 2 19 Z " fill="#484848" transform="translate(280,211)"/>
<path d="M0 0 C6.6 0 13.2 0 20 0 C20 5.61 20 11.22 20 17 C15.38 17 10.76 17 6 17 C6 18.98 6 20.96 6 23 C10.62 23 15.24 23 20 23 C20 24.65 20 26.3 20 28 C13.4 28 6.8 28 0 28 C0 18.76 0 9.52 0 0 Z M6 6 C6 7.98 6 9.96 6 12 C8.64 12 11.28 12 14 12 C14 10.02 14 8.04 14 6 C11.36 6 8.72 6 6 6 Z " fill="#383838" transform="translate(187,213)"/>
<path d="M0 0 C1.03930664 0.07831055 1.03930664 0.07831055 2.09960938 0.15820312 C3.79604437 0.28689819 5.49184863 0.42386184 7.1875 0.5625 C8.53765859 4.61297576 7.80834998 7.3545168 7.1875 11.5625 C5.2075 11.5625 3.2275 11.5625 1.1875 11.5625 C1.1875 9.9125 1.1875 8.2625 1.1875 6.5625 C-1.1225 6.5625 -3.4325 6.5625 -5.8125 6.5625 C-5.8125 14.4825 -5.8125 22.4025 -5.8125 30.5625 C-1.8525 30.5625 2.1075 30.5625 6.1875 30.5625 C6.5175 32.2125 6.8475 33.8625 7.1875 35.5625 C4.79208732 35.75835135 2.39657226 35.94442107 0 36.125 C-1.01030273 36.20911133 -1.01030273 36.20911133 -2.04101562 36.29492188 C-5.86010923 36.57436775 -9.09176026 36.39650732 -12.8125 35.5625 C-12.97998075 30.89962319 -13.14055376 26.23657963 -13.29467773 21.57324219 C-13.34810756 19.98626271 -13.40343771 18.39934605 -13.46069336 16.8125 C-13.54257724 14.53399196 -13.61766524 12.25534678 -13.69140625 9.9765625 C-13.71844131 9.26505035 -13.74547638 8.55353821 -13.77333069 7.82046509 C-13.92637171 2.79024341 -13.92637171 2.79024341 -12.8125 0.5625 C-8.55357648 -0.77693546 -4.38136774 -0.36476459 0 0 Z " fill="#484848" transform="translate(110.8125,205.4375)"/>
<path d="M0 0 C6.93 0 13.86 0 21 0 C22.35015859 4.05047576 21.62084998 6.7920168 21 11 C19.02 11 17.04 11 15 11 C15 9.35 15 7.7 15 6 C12.36 6 9.72 6 7 6 C6.67 13.92 6.34 21.84 6 30 C10.62 30 15.24 30 20 30 C20 31.65 20 33.3 20 35 C13.4 35 6.8 35 0 35 C-0.1656259 30.33699379 -0.32805276 25.67410975 -0.48217773 21.01074219 C-0.53560756 19.42376271 -0.59093771 17.83684605 -0.64819336 16.25 C-0.73007724 13.97149196 -0.80516524 11.69284678 -0.87890625 9.4140625 C-0.90594131 8.70255035 -0.93297638 7.99103821 -0.96083069 7.25796509 C-1.11387171 2.22774341 -1.11387171 2.22774341 0 0 Z " fill="#444444" transform="translate(216,206)"/>
<path d="M0 0 C0 7.26 0 14.52 0 22 C2.64 22 5.28 22 8 22 C8 14.41 8 6.82 8 -1 C9.65 -1 11.3 -1 13 -1 C14 0 14 0 14.11352539 2.59204102 C14.10828857 3.71795654 14.10305176 4.84387207 14.09765625 6.00390625 C14.09443359 7.21884766 14.09121094 8.43378906 14.08789062 9.68554688 C14.07951172 10.96494141 14.07113281 12.24433594 14.0625 13.5625 C14.05798828 14.84576172 14.05347656 16.12902344 14.04882812 17.45117188 C14.03699545 20.63416022 14.02051068 23.81705762 14 27 C13.43490723 27.02505615 12.86981445 27.0501123 12.28759766 27.07592773 C9.73316258 27.19179956 7.1791045 27.31456537 4.625 27.4375 C3.29082031 27.49647461 3.29082031 27.49647461 1.9296875 27.55664062 C1.07890625 27.59853516 0.228125 27.64042969 -0.6484375 27.68359375 C-1.82672119 27.73858032 -1.82672119 27.73858032 -3.02880859 27.79467773 C-5.07523496 27.890891 -5.07523496 27.890891 -7 29 C-8.101173 25.69648101 -8.03109831 23.48612828 -7.87890625 20.01953125 C-7.83056641 18.85615234 -7.78222656 17.69277344 -7.73242188 16.49414062 C-7.67634766 15.27919922 -7.62027344 14.06425781 -7.5625 12.8125 C-7.51029297 11.58595703 -7.45808594 10.35941406 -7.40429688 9.09570312 C-7.27451599 6.06354982 -7.13954569 3.03171706 -7 0 C-5 -1 -5 -1 0 0 Z " fill="#2B2B2B" transform="translate(394,214)"/>
<path d="M0 0 C0.33 0.99 0.66 1.98 1 3 C3.475 3.495 3.475 3.495 6 4 C5.67 5.65 5.34 7.3 5 9 C3.68 9.33 2.36 9.66 1 10 C1 11.32 1 12.64 1 14 C2.32 14 3.64 14 5 14 C5 15.98 5 17.96 5 20 C3.68 20 2.36 20 1 20 C0.67 20.66 0.34 21.32 0 22 C0 21.34 0 20.68 0 20 C-0.99 20 -1.98 20 -3 20 C-3 27.26 -3 34.52 -3 42 C-4.98 42 -6.96 42 -9 42 C-9 34.74 -9 27.48 -9 20 C-10.98 20 -12.96 20 -15 20 C-15.042721 18.33388095 -15.04063832 16.66617115 -15 15 C-14 14 -14 14 -11.4375 13.9375 C-10.633125 13.958125 -9.82875 13.97875 -9 14 C-9 12.68 -9 11.36 -9 10 C-9.66 9.67 -10.32 9.34 -11 9 C-10.34 7.02 -9.68 5.04 -9 3 C-6.03 3 -3.06 3 0 3 C0 2.01 0 1.02 0 0 Z M-3 10 C-3 11.32 -3 12.64 -3 14 C-2.01 14 -1.02 14 0 14 C0 12.68 0 11.36 0 10 C-0.99 10 -1.98 10 -3 10 Z " fill="#313131" transform="translate(316,199)"/>
<path d="M0 0 C2.8125 -0.25 2.8125 -0.25 6 0 C7.875 2 7.875 2 9 4 C8.01 4 7.02 4 6 4 C6 5.32 6 6.64 6 8 C6.969375 7.979375 7.93875 7.95875 8.9375 7.9375 C12 8 12 8 13 9 C13.04063832 10.66617115 13.042721 12.33388095 13 14 C11.02 14 9.04 14 7 14 C6.67 19.61 6.34 25.22 6 31 C8.31 31 10.62 31 13 31 C13 32.65 13 34.3 13 36 C8.71 36 4.42 36 0 36 C0 28.74 0 21.48 0 14 C-1.65 14 -3.3 14 -5 14 C-5 12.02 -5 10.04 -5 8 C-3.35 8 -1.7 8 0 8 C-0.185625 7.236875 -0.37125 6.47375 -0.5625 5.6875 C-1 3 -1 3 0 0 Z " fill="#4F4F4F" transform="translate(336,205)"/>
<path d="M0 0 C5.94 0.33 11.88 0.66 18 1 C19.125 8.875 19.125 8.875 18 12 C16.02 12 14.04 12 12 12 C12 10.35 12 8.7 12 7 C10.35 7 8.7 7 7 7 C7.33 14.26 7.66 21.52 8 29 C4.04 29.495 4.04 29.495 0 30 C0 20.1 0 10.2 0 0 Z " fill="#020202" transform="translate(245,212)"/>
<path d="M0 0 C0.66 0.33 1.32 0.66 2 1 C2.44921875 3.36328125 2.44921875 3.36328125 2.6875 6.3125 C2.77386719 7.27800781 2.86023438 8.24351562 2.94921875 9.23828125 C2.99537006 11.74820274 2.75083762 13.62328843 2 16 C3.39025391 15.98259766 3.39025391 15.98259766 4.80859375 15.96484375 C6.00613281 15.95582031 7.20367187 15.94679687 8.4375 15.9375 C9.63246094 15.92589844 10.82742188 15.91429687 12.05859375 15.90234375 C15 16 15 16 16 17 C16.08758003 18.99964982 16.10696576 21.0023611 16.09765625 23.00390625 C16.09443359 24.21884766 16.09121094 25.43378906 16.08789062 26.68554688 C16.07951172 27.96494141 16.07113281 29.24433594 16.0625 30.5625 C16.05798828 31.84576172 16.05347656 33.12902344 16.04882812 34.45117188 C16.03699545 37.63416022 16.02051068 40.81705762 16 44 C13.43788925 44.19569589 10.87567609 44.38180612 8.3125 44.5625 C7.2306543 44.64661133 7.2306543 44.64661133 6.12695312 44.73242188 C2.19294206 45.00187469 -1.16773993 44.86422266 -5 44 C-5.16865537 39.42871289 -5.3290954 34.85723555 -5.48217773 30.28540039 C-5.53529982 28.73258861 -5.59060264 27.17984974 -5.64819336 25.62719727 C-5.73094381 23.38573934 -5.80565221 21.14412978 -5.87890625 18.90234375 C-5.90594131 18.21663803 -5.93297638 17.53093231 -5.96083069 16.82444763 C-6.0955534 12.39885224 -5.73365356 8.34510647 -5 4 C-3.35 3.67 -1.7 3.34 0 3 C0 2.01 0 1.02 0 0 Z M-3 4 C-3 16.87 -3 29.74 -3 43 C2.94 43 8.88 43 15 43 C15 34.42 15 25.84 15 17 C10.38 17 5.76 17 1 17 C1 12.71 1 8.42 1 4 C-0.32 4 -1.64 4 -3 4 Z " fill="#AFAFAF" transform="translate(422,197)"/>
<path d="M0 0 C5.94 0.33 11.88 0.66 18 1 C19.125 8.875 19.125 8.875 18 12 C16.02 12 14.04 12 12 12 C12 10.35 12 8.7 12 7 C10.35 7 8.7 7 7 7 C7.33 14.26 7.66 21.52 8 29 C4.04 29.495 4.04 29.495 0 30 C0 20.1 0 10.2 0 0 Z M2 2 C2 10.58 2 19.16 2 28 C3.32 28 4.64 28 6 28 C6 20.74 6 13.48 6 6 C8.31 6 10.62 6 13 6 C13 7.65 13 9.3 13 11 C14.32 11 15.64 11 17 11 C17 8.03 17 5.06 17 2 C12.05 2 7.1 2 2 2 Z " fill="#B8B8B8" transform="translate(245,212)"/>
<path d="M0 0 C0.66 0 1.32 0 2 0 C2 8.58 2 17.16 2 26 C7.94 26 13.88 26 20 26 C20 17.42 20 8.84 20 0 C20.33 0 20.66 0 21 0 C21 8.91 21 17.82 21 27 C11.625 27.4375 11.625 27.4375 8.67431641 27.56811523 C7.52455322 27.6252771 7.52455322 27.6252771 6.3515625 27.68359375 C5.17327881 27.73858032 5.17327881 27.73858032 3.97119141 27.79467773 C1.92476504 27.890891 1.92476504 27.890891 0 29 C-1.101173 25.69648101 -1.03109831 23.48612828 -0.87890625 20.01953125 C-0.83056641 18.85615234 -0.78222656 17.69277344 -0.73242188 16.49414062 C-0.67634766 15.27919922 -0.62027344 14.06425781 -0.5625 12.8125 C-0.51029297 11.58595703 -0.45808594 10.35941406 -0.40429688 9.09570312 C-0.27451599 6.06354982 -0.13954569 3.03171706 0 0 Z " fill="#A3A3A3" transform="translate(387,214)"/>
<path d="M0 0 C0.33 0.99 0.66 1.98 1 3 C3.475 3.495 3.475 3.495 6 4 C5.67 5.65 5.34 7.3 5 9 C3.68 9.33 2.36 9.66 1 10 C1 11.32 1 12.64 1 14 C2.32 14.33 3.64 14.66 5 15 C2.03 15 -0.94 15 -4 15 C-4 12.36 -4 9.72 -4 7 C-1.36 7 1.28 7 4 7 C4 6.01 4 5.02 4 4 C0.04 4 -3.92 4 -8 4 C-8 7.63 -8 11.26 -8 15 C-9.98 15 -11.96 15 -14 15 C-14 14.67 -14 14.34 -14 14 C-12.35 14 -10.7 14 -9 14 C-9 12.68 -9 11.36 -9 10 C-9.66 9.67 -10.32 9.34 -11 9 C-10.34 7.02 -9.68 5.04 -9 3 C-6.03 3 -3.06 3 0 3 C0 2.01 0 1.02 0 0 Z M-3 10 C-3 11.32 -3 12.64 -3 14 C-2.01 14 -1.02 14 0 14 C0 12.68 0 11.36 0 10 C-0.99 10 -1.98 10 -3 10 Z " fill="#ADADAD" transform="translate(316,199)"/>
<path d="M0 0 C3.3 0 6.6 0 10 0 C10 5.94 10 11.88 10 18 C9.67 18 9.34 18 9 18 C8.67 13.05 8.34 8.1 8 3 C7.67 7.95 7.34 12.9 7 18 C6.67 18 6.34 18 6 18 C5.67 12.39 5.34 6.78 5 1 C3.68 1 2.36 1 1 1 C1 6.61 1 12.22 1 18 C0.67 18 0.34 18 0 18 C0 12.06 0 6.12 0 0 Z " fill="#A6A6A6" transform="translate(133,218)"/>
<path d="M0 0 C0.66 0 1.32 0 2 0 C2 7.92 2 15.84 2 24 C1.67 24 1.34 24 1 24 C0.28586721 15.97875848 -0.14525497 8.05358138 0 0 Z " fill="#E7E7E7" transform="translate(209,213)"/>
<path d="M0 0 C2.97 0 5.94 0 9 0 C8.67 0.66 8.34 1.32 8 2 C7.01 2 6.02 2 5 2 C5 3.32 5 4.64 5 6 C6.32 6.33 7.64 6.66 9 7 C6.03 7 3.06 7 0 7 C0 4.69 0 2.38 0 0 Z M1 2 C1 3.32 1 4.64 1 6 C1.99 6 2.98 6 4 6 C4 4.68 4 3.36 4 2 C3.01 2 2.02 2 1 2 Z " fill="#E4E4E4" transform="translate(312,207)"/>
<path d="M0 0 C0.33 0 0.66 0 1 0 C1 3.96 1 7.92 1 12 C0.34 12 -0.32 12 -1 12 C-1.02687279 10.18757948 -1.04633715 8.37504767 -1.0625 6.5625 C-1.07410156 5.55316406 -1.08570313 4.54382813 -1.09765625 3.50390625 C-1 1 -1 1 0 0 Z " fill="#E8E8E8" transform="translate(352,230)"/>
<path d="M0 0 C0.99 0 1.98 0 3 0 C2.67 5.61 2.34 11.22 2 17 C1.67 17 1.34 17 1 17 C0.67 11.39 0.34 5.78 0 0 Z " fill="#E2E2E2" transform="translate(138,219)"/>
<path d="M0 0 C0.66 0 1.32 0 2 0 C2 3.3 2 6.6 2 10 C1.34 10 0.68 10 0 10 C0 6.7 0 3.4 0 0 Z " fill="#E8E8E8" transform="translate(351,209)"/>
</svg>
