<?xml version="1.0" encoding="UTF-8"?>
<svg version="1.1" xmlns="http://www.w3.org/2000/svg" width="562" height="444">
<path d="M0 0 C3.37114863 1.28151993 6.46768696 2.73664128 9.58984375 4.5390625 C10.45013184 5.03374023 11.31041992 5.52841797 12.19677734 6.03808594 C13.10121582 6.56176758 14.0056543 7.08544922 14.9375 7.625 C15.87029785 8.15899414 16.8030957 8.69298828 17.76416016 9.24316406 C21.95154061 11.64316878 26.12398641 14.05963804 30.24609375 16.5703125 C30.86814697 16.94333496 31.4902002 17.31635742 32.13110352 17.70068359 C33.75831304 18.67978853 35.37566608 19.6752227 36.9921875 20.671875 C42.6288611 23.16079581 47.66136107 22.0271065 53.4375 20.5 C62.60548592 18.3096962 68.70783208 18.95265343 77.8515625 21.34375 C83.52645657 22.6421503 83.52645657 22.6421503 88.92480469 20.91308594 C90.42841561 19.88991874 91.91900523 18.84747509 93.39941406 17.79101562 C98.32691239 14.39746251 103.64013075 11.63651669 108.875 8.75 C111.10213857 7.51666468 113.32872745 6.28233608 115.5546875 5.046875 C116.52905762 4.50901367 117.50342773 3.97115234 118.50732422 3.41699219 C120.38187741 2.35137938 122.20587877 1.19608082 124 0 C124.99 0 125.98 0 127 0 C127.57635511 5.92181884 128.14574808 11.84425296 128.70898438 17.76733398 C128.90112982 19.77792975 129.09510385 21.78835171 129.29101562 23.79858398 C129.57394605 26.70511665 129.85007014 29.61223217 130.125 32.51953125 C130.21249512 33.40332962 130.29999023 34.28712799 130.39013672 35.19770813 C131.7192693 49.47209393 129.72628466 61.14183556 125.89746094 74.89819336 C125.29972554 77.0889684 124.72992145 79.2875582 124.18847656 81.49291992 C119.43866821 100.82176125 119.43866821 100.82176125 113.0703125 105.19775391 C109.19489458 107.3405209 105.224592 108.7029611 101 110 C97.78880006 111.09057706 97.20727861 111.60473964 95.59960938 114.67041016 C95.18517578 115.78206543 94.77074219 116.8937207 94.34375 118.0390625 C93.87839844 119.25980469 93.41304688 120.48054688 92.93359375 121.73828125 C92.45500094 123.03358533 91.97714138 124.32916056 91.5 125.625 C83.28346383 147.57113911 83.28346383 147.57113911 78.3125 151.5625 C77.62285156 152.12066406 76.93320312 152.67882812 76.22265625 153.25390625 C75.48917969 153.83011719 74.75570312 154.40632812 74 155 C73.21496094 155.66902344 72.42992187 156.33804688 71.62109375 157.02734375 C70.44740234 158.00380859 70.44740234 158.00380859 69.25 159 C68.53328125 159.598125 67.8165625 160.19625 67.078125 160.8125 C65 162 65 162 63.1015625 161.9453125 C60.13511158 160.61096097 57.72556167 158.82707555 55.125 156.875 C54.11695313 156.12992188 53.10890625 155.38484375 52.0703125 154.6171875 C44.21318633 148.15175246 40.94449978 140.9381197 37.3125 131.5 C35.92852377 127.9919129 34.54425915 124.48410748 33.1472168 120.98120117 C32.48162322 119.25156442 31.85096082 117.50598535 31.31567383 115.73168945 C30.46215982 113.06998497 29.57197303 111.34437653 27.15014648 109.88623047 C24.02298341 108.53447801 20.83914212 107.44226823 17.60351562 106.38085938 C14.29700833 105.1304083 11.76435452 104.11440928 9.72485352 101.14086914 C8.59011568 98.46373583 7.78492893 95.80136587 7 93 C6.59637902 91.6522302 6.1908902 90.30501891 5.78393555 88.95825195 C4.40749503 84.34081597 3.10767241 79.70325845 1.8125 75.0625 C1.13748396 72.66370057 0.46096298 70.26532999 -0.21589661 67.86705017 C-0.63357557 66.38499987 -1.0498864 64.90256312 -1.46464539 63.41969299 C-2.25716893 60.59104833 -3.07086551 57.78740346 -4 55 C-4.71240257 42.96267461 -3.2804164 31.01269505 -2 19.0625 C-1.80658995 17.20384893 -1.61387722 15.34512516 -1.421875 13.48632812 C-0.95592937 8.9900091 -0.48063536 4.49477149 0 0 Z M35 78 C35.33 79.32 35.66 80.64 36 82 C38.90073181 82.67801034 38.90073181 82.67801034 42 83 C42.66 82.34 43.32 81.68 44 81 C44 80.01 44 79.02 44 78 C41.03 78 38.06 78 35 78 Z M83 78 C83 78.99 83 79.98 83 81 C86.20062687 82.60031344 88.72271806 81.03173691 92 80 C91.67 79.34 91.34 78.68 91 78 C88.36 78 85.72 78 83 78 Z " fill="#D6A755" transform="translate(203,140)"/>
<path d="M0 0 C0.5744695 5.97692738 1.1439686 11.95430042 1.70898438 17.93212891 C1.90164829 19.96318156 2.09563984 21.99410876 2.29101562 24.02490234 C2.57255529 26.95377675 2.84922491 29.88307787 3.125 32.8125 C3.21249512 33.71178223 3.29999023 34.61106445 3.39013672 35.53759766 C3.87244567 40.71877977 4.08461236 45.79633993 4 51 C-0.36594618 49.42576306 -4.24343585 47.20334768 -8.20703125 44.82421875 C-8.89125656 44.41718216 -9.57548187 44.01014557 -10.28044128 43.59077454 C-12.45980842 42.29302796 -14.63611652 40.99024268 -16.8125 39.6875 C-18.26348733 38.8232578 -19.71465752 37.95932252 -21.16601562 37.09570312 C-27.82028102 33.13088308 -34.45757472 29.1478121 -41 25 C-41.95152253 27.85456758 -42.18238223 29.86311259 -42.29711914 32.83862305 C-42.33708511 33.8194133 -42.37705109 34.80020355 -42.41822815 35.81071472 C-42.47610756 37.39521172 -42.47610756 37.39521172 -42.53515625 39.01171875 C-42.59962196 40.63676079 -42.59962196 40.63676079 -42.66539001 42.29463196 C-42.801867 45.75877516 -42.93225284 49.22311751 -43.0625 52.6875 C-43.15389615 55.03452085 -43.24568806 57.38152632 -43.33789062 59.72851562 C-43.56318831 65.48550865 -43.78302301 71.24268761 -44 77 C-41.03 77 -38.06 77 -35 77 C-35.33 77.66 -35.66 78.32 -36 79 C-38.97 79 -41.94 79 -45 79 C-45.495 78.01 -45.495 78.01 -46 77 C-51.94 75.02 -57.88 73.04 -64 71 C-64 54.17 -64 37.34 -64 20 C-64.99 19.67 -65.98 19.34 -67 19 C-60.66952129 18.6276189 -55.27463725 19.74174135 -49.1484375 21.34375 C-43.47354343 22.6421503 -43.47354343 22.6421503 -38.07519531 20.91308594 C-36.57158439 19.88991874 -35.08099477 18.84747509 -33.60058594 17.79101562 C-28.67308761 14.39746251 -23.35986925 11.63651669 -18.125 8.75 C-15.89786143 7.51666468 -13.67127255 6.28233608 -11.4453125 5.046875 C-10.47094238 4.50901367 -9.49657227 3.97115234 -8.49267578 3.41699219 C-2.48173673 0 -2.48173673 0 0 0 Z " fill="#D8D7D4" transform="translate(330,140)"/>
<path d="M0 0 C7.61530175 3.58925694 14.7095975 7.97971763 21.875 12.375 C23.10267961 13.12530274 24.33054313 13.87530465 25.55859375 14.625 C27.35537968 15.72192237 29.15204634 16.81903185 30.94793701 17.91741943 C35.94785451 20.97428616 40.96936079 23.99405912 46 27 C44.75269632 33.77517539 43.1485907 40.34584211 41.1796875 46.9453125 C40.91616486 47.84120087 40.65264221 48.73708923 40.38113403 49.66012573 C39.54980605 52.48296431 38.71251686 55.3039922 37.875 58.125 C37.30559206 60.05457024 36.73657806 61.98425677 36.16796875 63.9140625 C34.78319064 68.61073006 33.39306852 73.30578509 32 78 C31.34 78 30.68 78 30 78 C28.55126953 75.99633789 28.55126953 75.99633789 26.8828125 73.22265625 C26.27566406 72.23458984 25.66851562 71.24652344 25.04296875 70.22851562 C23.76814913 68.12415452 22.49728722 66.01739057 21.23046875 63.90820312 C20.62074219 62.91884766 20.01101563 61.92949219 19.3828125 60.91015625 C18.82996582 59.99371338 18.27711914 59.07727051 17.70751953 58.13305664 C16.18481559 55.89339754 16.18481559 55.89339754 13.96044922 55.10327148 C11.02059669 54.94840752 9.35529197 56.36438057 7 58 C7 56.35 7 54.7 7 53 C4.03 53 1.06 53 -2 53 C-2.10595733 40.21991589 -2.08152419 27.45923763 -1.5625 14.6875 C-1.52326416 13.67494141 -1.48402832 12.66238281 -1.44360352 11.61914062 C-1.40162842 10.67619141 -1.35965332 9.73324219 -1.31640625 8.76171875 C-1.27974854 7.93631592 -1.24309082 7.11091309 -1.20532227 6.26049805 C-1.00719946 4.0792626 -0.59370728 2.10468778 0 0 Z " fill="#9D7E47" transform="translate(288,164)"/>
<path d="M0 0 C17.82028875 4.20478723 17.82028875 4.20478723 20.4375 8.1875 C20.623125 8.785625 20.80875 9.38375 21 10 C22.27875 9.835 23.5575 9.67 24.875 9.5 C26.94627065 9.23273927 28.91103575 9 31 9 C31.99 8.34 32.98 7.68 34 7 C36.03735352 7.18359375 36.03735352 7.18359375 38 8 C39.80973834 10.30704854 41.38096513 12.53247451 42.9375 15 C43.59564697 16.01525757 43.59564697 16.01525757 44.26708984 17.05102539 C47.39235323 21.91531855 50.3521089 26.85751675 53 32 C51.96359375 32.48210937 50.9271875 32.96421875 49.859375 33.4609375 C48.48956968 34.09892902 47.11977877 34.73695148 45.75 35.375 C45.06808594 35.69210938 44.38617188 36.00921875 43.68359375 36.3359375 C43.01972656 36.6453125 42.35585938 36.9546875 41.671875 37.2734375 C41.0644043 37.55622559 40.45693359 37.83901367 39.83105469 38.13037109 C39.22680664 38.41734863 38.62255859 38.70432617 38 39 C37.31905273 39.24105469 36.63810547 39.48210937 35.93652344 39.73046875 C33.05617305 41.61874686 32.53459654 43.84479722 31.34375 47.0390625 C30.87839844 48.25980469 30.41304688 49.48054688 29.93359375 50.73828125 C29.45500094 52.03358533 28.97714138 53.32916056 28.5 54.625 C21.79842582 72.52471784 21.79842582 72.52471784 19 77 C14.80515904 78.87579412 10.07410829 78.7601444 5.76171875 77.1796875 C3.65336058 76.00110219 1.71686962 74.71686962 0 73 C-0.04080783 71.00041636 -0.04254356 68.99954746 0 67 C2.31 67 4.62 67 7 67 C8.53213012 56.99666668 9.64819844 47.01172631 10.5625 36.9375 C10.75096741 34.87161651 10.94051585 32.80585842 11.13328552 30.7403717 C11.30581471 28.89088355 11.47444611 27.04103298 11.64282227 25.19116211 C12 22 12 22 13 17 C8.71 17 4.42 17 0 17 C0 11.39 0 5.78 0 0 Z " fill="#9E7F49" transform="translate(266,211)"/>
<path d="M0 0 C8.03714304 -0.47277312 17.20229547 0.46819698 24 5 C24.35644531 7.40063477 24.35644531 7.40063477 24.328125 10.44140625 C24.32361328 11.5715918 24.31910156 12.70177734 24.31445312 13.86621094 C24.29318359 15.08598633 24.27191406 16.30576172 24.25 17.5625 C24.23904297 18.80418945 24.22808594 20.04587891 24.21679688 21.32519531 C24.07406788 33.55955276 23.59608261 45.78030659 23 58 C25.97 58 28.94 58 32 58 C31.67 58.66 31.34 59.32 31 60 C28.03 60 25.06 60 22 60 C21.67 59.34 21.34 58.68 21 58 C15.06 56.02 9.12 54.04 3 52 C3 35.17 3 18.34 3 1 C2.01 0.67 1.02 0.34 0 0 Z " fill="#D8D7D4" transform="translate(263,159)"/>
<path d="M0 0 C3.43002885 1.42679643 4.98552428 4.78121623 6.90014648 7.81640625 C7.33891113 8.49324463 7.77767578 9.17008301 8.22973633 9.86743164 C11.35499971 14.7317248 14.31475538 19.673923 16.96264648 24.81640625 C14.56760962 25.943128 12.17165939 27.06783183 9.77514648 28.19140625 C9.10161133 28.50851563 8.42807617 28.825625 7.73413086 29.15234375 C4.1804201 30.81652049 0.62768401 32.40732386 -3.03735352 33.81640625 C-3.56135742 32.81480469 -3.56135742 32.81480469 -4.09594727 31.79296875 C-6.68021043 27.83077855 -9.83158858 24.59598743 -13.09985352 21.19140625 C-14.36349239 19.86771578 -15.62528868 18.54226323 -16.88500977 17.21484375 C-17.72044312 16.34351807 -17.72044312 16.34351807 -18.57275391 15.45458984 C-20.03735352 13.81640625 -20.03735352 13.81640625 -22.03735352 10.81640625 C-21.66235352 8.12890625 -21.66235352 8.12890625 -21.03735352 5.81640625 C-19.38735352 5.81640625 -17.73735352 5.81640625 -16.03735352 5.81640625 C-16.36735352 4.49640625 -16.69735352 3.17640625 -17.03735352 1.81640625 C-16.04735352 2.14640625 -15.05735352 2.47640625 -14.03735352 2.81640625 C-11.69790616 2.5291057 -9.36343921 2.19703846 -7.03735352 1.81640625 C-6.37735352 1.81640625 -5.71735352 1.81640625 -5.03735352 1.81640625 C-2.03735352 -0.18359375 -2.03735352 -0.18359375 0 0 Z " fill="#D8D7D5" transform="translate(302.037353515625,218.18359375)"/>
<path d="M0 0 C4.29 0 8.58 0 13 0 C12.30971699 14.08177336 10.70257773 28.00779017 9 42 C6.03 42 3.06 42 0 42 C0 28.14 0 14.28 0 0 Z " fill="#D8D6D2" transform="translate(266,228)"/>
<path d="M0 0 C0.66 0.33 1.32 0.66 2 1 C2.46086589 3.64470753 2.8006915 6.20913353 3.0625 8.875 C3.14483887 9.65077393 3.22717773 10.42654785 3.31201172 11.22583008 C3.47514831 12.77950422 3.63406989 14.33362729 3.78857422 15.88818359 C3.96203676 17.62080598 4.15247548 19.35172086 4.34765625 21.08203125 C5.12525789 28.38710579 5.09643865 35.65994717 5 43 C2.84648661 39.76972992 1.73976003 36.5913931 0.5625 32.9375 C0.23536011 31.9331189 0.23536011 31.9331189 -0.09838867 30.90844727 C-0.53455059 29.56346666 -0.96826693 28.21769028 -1.39941406 26.87109375 C-1.9215088 25.24453517 -2.45577963 23.62189467 -2.9921875 22 C-6.2877732 11.70521801 -6.2877732 11.70521801 -3.875 6.63671875 C-2.64118815 4.38290904 -1.35723901 2.18127698 0 0 Z " fill="#A48754" transform="translate(328,142)"/>
<path d="M0 0 C4.62 0 9.24 0 14 0 C12.30885514 4.22786215 10.69115085 7.38376605 8 11 C7.34 11 6.68 11 6 11 C4.02 7.37 2.04 3.74 0 0 Z " fill="#9E7E46" transform="translate(259,290)"/>
<path d="M0 0 C0.721875 0.020625 1.44375 0.04125 2.1875 0.0625 C-1.21605179 3.54031111 -4.71167978 6.8069899 -8.4375 9.9375 C-9.37851562 10.73929687 -10.31953125 11.54109375 -11.2890625 12.3671875 C-12.12179687 12.92664063 -12.95453125 13.48609375 -13.8125 14.0625 C-14.8025 13.7325 -15.7925 13.4025 -16.8125 13.0625 C-16.255625 12.5675 -15.69875 12.0725 -15.125 11.5625 C-13.07705564 9.34850609 -11.84523052 7.46651392 -10.375 4.875 C-8.14199535 1.19429814 -8.14199535 1.19429814 -5.3125 0.0625 C-3.54154412 0.0625 -1.77051877 0.03934486 0 0 Z " fill="#D6D2CB" transform="translate(281.8125,287.9375)"/>
<path d="M0 0 C2.4750171 1.11431765 4.67883419 2.58150978 7 4 C7 4.33 7 4.66 7 5 C2.71 5 -1.58 5 -6 5 C-2 1 -2 1 0 0 Z " fill="#D7D4CF" transform="translate(266,284)"/>
</svg>
